<!-- SPDX-FileCopyrightText: 2025 Mahjongg Contributors
     SPDX-License-Identifier: GPL-2.0-or-later -->
<svg height="16px" viewBox="0 0 16 16" width="16px" xmlns="http://www.w3.org/2000/svg">
    <path d="m 7.484375 3.382812 l 1.328125 1.191407 l -0.328125 0.070312 c 0 0.589844 -0.113281 1.449219 -0.320313 2.347657 l 2.378907 0.007812 l 0.292969 -0.382812 l 0.660156 1.382812 h -2.25 c 0 0.984375 1.238281 2 1.238281 2 v 1.6875 s -1.816406 -0.386719 -1.949219 -3.6875 h -0.648437 c -0.492188 1.578125 -1.285157 3.078125 -2.402344 3.414062 l 0.011719 -1.441406 c 0.644531 -0.386718 1.085937 -1.101562 1.386718 -1.972656 h -1.9375 l -0.1875 -1.011719 l 2.398438 0.003907 c 0.25 -1.171876 0.167969 -2.484376 0.328125 -3.609376 z m 0 0"/>
    <path d="m 6 0 c -2.199219 0 -4 1.800781 -4 4 v 8 c 0 2.199219 1.800781 4 4 4 h 4 c 2.199219 0 4 -1.800781 4 -4 v -8 c 0 -2.199219 -1.800781 -4 -4 -4 z m 0 2 h 4 c 1.125 0 2 0.875 2 2 v 8 c 0 1.125 -0.875 2 -2 2 h -4 c -1.125 0 -2 -0.875 -2 -2 v -8 c 0 -1.125 0.875 -2 2 -2 z m 0 0"/>
</svg>
