<?xml version="1.0" encoding="utf-8"?>
<!DOCTYPE svg PUBLIC "-//W3C//DTD SVG 1.1//EN" "http://www.w3.org/Graphics/SVG/1.1/DTD/svg11.dtd">
<svg xmlns="http://www.w3.org/2000/svg" xmlns:xlink="http://www.w3.org/1999/xlink" width="5504" height="352" viewBox="0 0 2752 176" version="1.1">
 <defs>
  <g id="bt1">
   <path d="M9,0C8.47,0,7.96,0.21,7.59,0.59l-7,7C0.21,7.96,0,8.47,0,9v77c0,1.1,0.9,2,2,2h53c0.53,0,1.04-0.21,1.41-0.59l7-7C63.79,80.04,64,79.53,64,79V2c0-1.1-0.9-2-2-2H9z"/>
   <path fill="#9F9F9F" d="M11.75,78.25l-9,9h9H55c0.33,0,0.65-0.13,0.88-0.37l7-7c0.23-0.23,0.37-1.3,0.37-1.63H11.75z"/>
   <path fill="#D7D7D7" d="M8.12,1.12l-7,7C0.88,8.35,0.75,8.67,0.75,9v66.25v1v9l2,2l7-7v-4v-1V0.75C9.42,0.75,8.35,0.88,8.12,1.12z"/>
   <path fill="#BFBFBF" d="M1.61,86.89l10.14-10.14v-0.5L1.34,86.66C1.42,86.75,1.51,86.82,1.61,86.89z"/>
   <path fill="#B7B7B7" d="M1.93,87.07l9.82-9.82v-0.5L1.61,86.89C1.71,86.96,1.82,87.02,1.93,87.07z"/>
   <path fill="#AFAFAF" d="M2.3,87.2l9.45-9.45v-0.5l-9.82,9.82C2.05,87.12,2.17,87.17,2.3,87.2z"/>
   <path fill="#A7A7A7" d="M11.75,77.75L2.3,87.2c0.14,0.03,0.29,0.05,0.45,0.05l9-9V77.75z"/>
   <path fill="#C7C7C7" d="M1.34,86.66l10.41-10.41h-0.5L1.11,86.39C1.18,86.49,1.25,86.58,1.34,86.66z"/>
   <path fill="#CDCDCD" d="M1.11,86.39l10.14-10.14h-0.5l-9.82,9.82C0.98,86.18,1.04,86.29,1.11,86.39z"/>
   <path fill="#D2D2D2" d="M0.93,86.07l9.82-9.82h-0.5L0.8,85.7C0.83,85.83,0.88,85.95,0.93,86.07z"/>
   <path fill="#D7D7D7" d="M10.25,76.25h-0.5l-9,9c0,0.15,0.02,0.3,0.05,0.45L10.25,76.25z"/>
   <path fill="#F6F6F6" d="M63.25,78.25V2.75c0-1.1-0.9-2-2-2h-50.5c-1.1,0-2,0.9-2,2v75.5c0,1.1,0.9,2,2,2h50.5C62.35,80.25,63.25,79.35,63.25,78.25z"/>
   <path fill="#FFFFFF" d="M8.75,78.25V2.75c0-1.1,0.9-2,2-2h-1c-1.1,0-2,0.9-2,2v75.5c0,1.1,0.9,2,2,2h1C9.65,80.25,8.75,79.35,8.75,78.25z"/>
  </g>
  <g id="bt2">
   <path fill="#0000FF" d="M9,0C8.47,0,7.96,0.21,7.59,0.59l-7,7C0.21,7.96,0,8.47,0,9v77c0,1.1,0.9,2,2,2h53c0.53,0,1.04-0.21,1.41-0.59l7-7C63.79,80.04,64,79.53,64,79V2c0-1.1-0.9-2-2-2H9z"/>
   <path fill="#8F8FFF" d="M11.75,78.25l-9,9h9H55c0.33,0,0.65-0.13,0.88-0.37l7-7c0.23-0.23,0.37-1.3,0.37-1.63H11.75z"/>
   <path fill="#C7C7FF" d="M8.12,1.12l-7,7C0.88,8.35,0.75,8.67,0.75,9v66.25v1v9l2,2l7-7v-4v-1V0.75C9.42,0.75,8.35,0.88,8.12,1.12z"/>
   <path fill="#AFAFFF" d="M1.61,86.89l10.14-10.14v-0.5L1.34,86.66C1.42,86.75,1.51,86.82,1.61,86.89z"/>
   <path fill="#A7A7FF" d="M1.93,87.07l9.82-9.82v-0.5L1.61,86.89C1.71,86.96,1.82,87.02,1.93,87.07z"/>
   <path fill="#9F9FFF" d="M2.3,87.2l9.45-9.45v-0.5l-9.82,9.82C2.05,87.12,2.17,87.17,2.3,87.2z"/>
   <path fill="#9797FF" d="M11.75,77.75L2.3,87.2c0.14,0.03,0.29,0.05,0.45,0.05l9-9V77.75z"/>
   <path fill="#B7B7FF" d="M1.34,86.66l10.41-10.41h-0.5L1.11,86.39C1.18,86.49,1.25,86.58,1.34,86.66z"/>
   <path fill="#BDBDFF" d="M1.11,86.39l10.14-10.14h-0.5l-9.82,9.82C0.98,86.18,1.04,86.29,1.11,86.39z"/>
   <path fill="#C2C2FF" d="M0.93,86.07l9.82-9.82h-0.5L0.8,85.7C0.83,85.83,0.88,85.95,0.93,86.07z"/>
   <path fill="#C7C7FF" d="M10.25,76.25h-0.5l-9,9c0,0.15,0.02,0.3,0.05,0.45L10.25,76.25z"/>
   <path fill="#E3E3FF" d="M61.25,0.75H9.75c-1.1,0-2,0.9-2,2v75.5c0,1.1,0.9,2,2,2h51.5c1.1,0,2-0.9,2-2V2.75C63.25,1.65,62.35,0.75,61.25,0.75z"/>
   <path fill="#FFFFFF" stroke="#0000FF" stroke-width="3" d="M60,74.19c0,1.55-1.22,2.81-2.72,2.81H13.72c-1.5,0-2.72-1.26-2.72-2.81V6.81C11,5.26,12.22,4,13.72,4h43.56C58.78,4,60,5.26,60,6.81V74.19z"/>
  </g>
  <path id="bams" fill="#006C00" d="M11,13.5c0-0.92-1.25-1.71-3.06-2.09V4.44C9.75,4.06,11,3.27,11,2.35C11,1.05,8.54,0,5.5,0S0,1.05,0,2.35c0,0.92,1.25,1.71,3.06,2.09v6.97C1.25,11.79,0,12.58,0,13.5c0,0.92,1.25,1.71,3.06,2.09v6.96C1.25,22.94,0,23.73,0,24.65C0,25.95,2.46,27,5.5,27s5.5-1.05,5.5-2.35c0-0.92-1.25-1.71-3.06-2.09v-6.96C9.75,15.21,11,14.42,11,13.5z M5.5,1.47c1.35,0,2.44,0.39,2.44,0.88c0,0.41-0.78,0.75-1.83,0.85v5.94c0,0.46-0.28,0.84-0.61,0.84S4.89,9.6,4.89,9.14V3.2C3.84,3.1,3.06,2.76,3.06,2.35C3.06,1.86,4.15,1.47,5.5,1.47z M5.5,25.53c-1.35,0-2.44-0.39-2.44-0.88c0-0.41,0.78-0.75,1.83-0.85v-5.94c0-0.46,0.28-0.84,0.61-0.84s0.61,0.38,0.61,0.84v5.94c1.05,0.1,1.83,0.44,1.83,0.85C7.94,25.14,6.85,25.53,5.5,25.53z M5.5,14.38c-1.86,0-3.36-0.39-3.36-0.88c0-0.49,1.5-0.88,3.36-0.88s3.36,0.39,3.36,0.88C8.86,13.99,7.36,14.38,5.5,14.38z"/>
  <path id="bams2" fill="#9C0000" d="M11,13.5c0-0.92-1.25-1.71-3.06-2.09V4.44C9.75,4.06,11,3.27,11,2.35C11,1.05,8.54,0,5.5,0S0,1.05,0,2.35c0,0.92,1.25,1.71,3.06,2.09v6.97C1.25,11.79,0,12.58,0,13.5c0,0.92,1.25,1.71,3.06,2.09v6.96C1.25,22.94,0,23.73,0,24.65C0,25.95,2.46,27,5.5,27s5.5-1.05,5.5-2.35c0-0.92-1.25-1.71-3.06-2.09v-6.96C9.75,15.21,11,14.42,11,13.5z M5.5,1.47c1.35,0,2.44,0.39,2.44,0.88c0,0.41-0.78,0.75-1.83,0.85v5.94c0,0.46-0.28,0.84-0.61,0.84S4.89,9.6,4.89,9.14V3.2C3.84,3.1,3.06,2.76,3.06,2.35C3.06,1.86,4.15,1.47,5.5,1.47z M5.5,25.53c-1.35,0-2.44-0.39-2.44-0.88c0-0.41,0.78-0.75,1.83-0.85v-5.94c0-0.46,0.28-0.84,0.61-0.84s0.61,0.38,0.61,0.84v5.94c1.05,0.1,1.83,0.44,1.83,0.85C7.94,25.14,6.85,25.53,5.5,25.53z M5.5,14.38c-1.86,0-3.36-0.39-3.36-0.88c0-0.49,1.5-0.88,3.36-0.88s3.36,0.39,3.36,0.88C8.86,13.99,7.36,14.38,5.5,14.38z"/>
  <g id="dots">
   <path fill="#10106C" d="M9,1.42c-4.18,0-7.58,3.4-7.58,7.58s3.4,7.58,7.58,7.58c4.18,0,7.58-3.4,7.58-7.58S13.18,1.42,9,1.42zM9,15.11c-1.36,0-2.49-0.97-2.75-2.25c0.78,0.56,1.72,0.89,2.75,0.89c1.03,0,1.97-0.34,2.75-0.89C11.49,14.14,10.36,15.11,9,15.11z M9,2.89c1.36,0,2.49,0.97,2.75,2.25C10.97,4.59,10.03,4.25,9,4.25c-1.03,0-1.97,0.34-2.75,0.89C6.51,3.86,7.64,2.89,9,2.89z M12.75,9c0,0.57-0.14,1.11-0.37,1.59C12.04,9.92,11.51,9.37,10.85,9c0.66-0.37,1.19-0.92,1.53-1.59C12.61,7.89,12.75,8.43,12.75,9z M5.25,9c0-0.57,0.14-1.11,0.37-1.59C5.96,8.08,6.49,8.63,7.15,9c-0.66,0.37-1.19,0.92-1.53,1.59C5.39,10.11,5.25,9.57,5.25,9z M11.59,11.7c-1.02-0.27-1.82-1.1-2.03-2.14c1.04,0.21,1.87,1.01,2.14,2.03C11.66,11.63,11.63,11.66,11.59,11.7z M6.3,11.59c0.27-1.02,1.1-1.82,2.15-2.03c-0.21,1.04-1.01,1.87-2.03,2.14C6.37,11.66,6.34,11.63,6.3,11.59z M6.41,6.3c1.02,0.27,1.82,1.1,2.03,2.15C7.4,8.23,6.57,7.43,6.3,6.41C6.34,6.37,6.37,6.34,6.41,6.3z M11.7,6.41c-0.27,1.02-1.1,1.82-2.14,2.03c0.21-1.05,1.01-1.87,2.03-2.15C11.63,6.34,11.66,6.37,11.7,6.41z M9,7.15C8.63,6.49,8.08,5.96,7.41,5.62C7.89,5.39,8.43,5.25,9,5.25s1.11,0.14,1.59,0.37C9.92,5.96,9.37,6.49,9,7.15z M9,10.85c0.37,0.66,0.92,1.19,1.59,1.53c-0.49,0.23-1.02,0.37-1.59,0.37s-1.11-0.14-1.59-0.37C8.08,12.04,8.63,11.51,9,10.85z M5.14,11.75C3.86,11.49,2.89,10.36,2.89,9s0.97-2.49,2.25-2.75C4.59,7.03,4.25,7.97,4.25,9C4.25,10.03,4.59,10.97,5.14,11.75z M12.86,6.25c1.28,0.26,2.25,1.39,2.25,2.75s-0.97,2.49-2.25,2.75c0.56-0.78,0.89-1.72,0.89-2.75C13.75,7.97,13.41,7.03,12.86,6.25z M15.01,6.33c-0.59-0.6-1.38-0.99-2.25-1.09c-0.11-0.88-0.49-1.66-1.09-2.25C13.15,3.65,14.35,4.85,15.01,6.33z M6.33,2.99c-0.6,0.59-0.98,1.38-1.09,2.25C4.36,5.35,3.58,5.73,2.99,6.33C3.65,4.85,4.85,3.65,6.33,2.99z M2.99,11.67c0.59,0.6,1.38,0.99,2.25,1.09c0.11,0.88,0.49,1.66,1.09,2.25C4.85,14.35,3.65,13.15,2.99,11.67z M11.67,15.01c0.6-0.59,0.99-1.38,1.09-2.25c0.88-0.11,1.66-0.49,2.25-1.09C14.35,13.15,13.15,14.35,11.67,15.01z"/>
   <path fill="#10106C" d="M9,0C4.04,0,0,4.04,0,9c0,4.96,4.04,9,9,9c4.96,0,9-4.04,9-9C18,4.04,13.96,0,9,0z M9,17c-4.41,0-8-3.59-8-8s3.59-8,8-8s8,3.59,8,8S13.41,17,9,17z"/>
  </g>
  <g id="dots2">
   <path fill="#9C0000" d="M9,1.42c-4.18,0-7.58,3.4-7.58,7.58s3.4,7.58,7.58,7.58c4.18,0,7.58-3.4,7.58-7.58S13.18,1.42,9,1.42zM9,15.11c-1.36,0-2.49-0.97-2.75-2.25c0.78,0.56,1.72,0.89,2.75,0.89c1.03,0,1.97-0.34,2.75-0.89C11.49,14.14,10.36,15.11,9,15.11z M9,2.89c1.36,0,2.49,0.97,2.75,2.25C10.97,4.59,10.03,4.25,9,4.25c-1.03,0-1.97,0.34-2.75,0.89C6.51,3.86,7.64,2.89,9,2.89z M12.75,9c0,0.57-0.14,1.11-0.37,1.59C12.04,9.92,11.51,9.37,10.85,9c0.66-0.37,1.19-0.92,1.53-1.59C12.61,7.89,12.75,8.43,12.75,9z M5.25,9c0-0.57,0.14-1.11,0.37-1.59C5.96,8.08,6.49,8.63,7.15,9c-0.66,0.37-1.19,0.92-1.53,1.59C5.39,10.11,5.25,9.57,5.25,9z M11.59,11.7c-1.02-0.27-1.82-1.1-2.03-2.14c1.04,0.21,1.87,1.01,2.14,2.03C11.66,11.63,11.63,11.66,11.59,11.7z M6.3,11.59c0.27-1.02,1.1-1.82,2.15-2.03c-0.21,1.04-1.01,1.87-2.03,2.14C6.37,11.66,6.34,11.63,6.3,11.59z M6.41,6.3c1.02,0.27,1.82,1.1,2.03,2.15C7.4,8.23,6.57,7.43,6.3,6.41C6.34,6.37,6.37,6.34,6.41,6.3z M11.7,6.41c-0.27,1.02-1.1,1.82-2.14,2.03c0.21-1.05,1.01-1.87,2.03-2.15C11.63,6.34,11.66,6.37,11.7,6.41z M9,7.15C8.63,6.49,8.08,5.96,7.41,5.62C7.89,5.39,8.43,5.25,9,5.25s1.11,0.14,1.59,0.37C9.92,5.96,9.37,6.49,9,7.15z M9,10.85c0.37,0.66,0.92,1.19,1.59,1.53c-0.49,0.23-1.02,0.37-1.59,0.37s-1.11-0.14-1.59-0.37C8.08,12.04,8.63,11.51,9,10.85z M5.14,11.75C3.86,11.49,2.89,10.36,2.89,9s0.97-2.49,2.25-2.75C4.59,7.03,4.25,7.97,4.25,9C4.25,10.03,4.59,10.97,5.14,11.75z M12.86,6.25c1.28,0.26,2.25,1.39,2.25,2.75s-0.97,2.49-2.25,2.75c0.56-0.78,0.89-1.72,0.89-2.75C13.75,7.97,13.41,7.03,12.86,6.25z M15.01,6.33c-0.59-0.6-1.38-0.99-2.25-1.09c-0.11-0.88-0.49-1.66-1.09-2.25C13.15,3.65,14.35,4.85,15.01,6.33z M6.33,2.99c-0.6,0.59-0.98,1.38-1.09,2.25C4.36,5.35,3.58,5.73,2.99,6.33C3.65,4.85,4.85,3.65,6.33,2.99z M2.99,11.67c0.59,0.6,1.38,0.99,2.25,1.09c0.11,0.88,0.49,1.66,1.09,2.25C4.85,14.35,3.65,13.15,2.99,11.67z M11.67,15.01c0.6-0.59,0.99-1.38,1.09-2.25c0.88-0.11,1.66-0.49,2.25-1.09C14.35,13.15,13.15,14.35,11.67,15.01z"/>
   <path fill="#9C0000" d="M9,0C4.04,0,0,4.04,0,9c0,4.96,4.04,9,9,9c4.96,0,9-4.04,9-9C18,4.04,13.96,0,9,0z M9,17c-4.41,0-8-3.59-8-8s3.59-8,8-8s8,3.59,8,8S13.41,17,9,17z"/>
  </g>
  <g id="nums">
   <path fill="#BA0000" d="M18.01,0.14c0,0-4.39,3.33-4.78,3.63c-0.32-0.33-3.2-3.27-3.2-3.27l2.22,8.92l0.6-0.03c0.75-4.76,4.35-6.63,5.33-7.05c0.14,0.2,0.26,0.42,0.26,0.72c0,0.09-0.01,0.18-0.02,0.28c-0.21,1.67-2.39,4.64-6.68,7.21l-0.31,0.18l0.81,1.01l0.2-0.06c0.06-0.02,6.59-2.06,10.36-1.88l1.14,0.05l-0.96-0.63c-0.08-0.05-1.95-1.25-3.93-1.03c0.28-0.63,2.26-2.56,4.15-4.16l0.31-0.26L18.19,0L18.01,0.14z"/>
   <path fill="#BA0000" d="M33.78,24.64c-0.17-0.17-4.21-4.28-5.63-5.01c-0.53-0.27-1.71-0.18-5.75,0.16c0,0-0.17,0.01-0.43,0.04c1.19-2.79,2.72-5.86,3.57-6.25l0.55-0.25l-2.13-2.09l-0.21,0.03c-5.11,0.87-13.08,2.09-14.11,1.9l-0.35-0.07l-0.12,0.33c-0.2,0.56,0.32,4.93,0.86,7.37C5.45,21.2,0,21.66,0,21.66l0.3,0.56l0.68,1.27l0.32-0.09c1.72-0.51,2.52-0.57,4.6-0.54c0.19,0.49,2.6,6.77,2.6,6.77l0.79-0.2c0,0-0.69-5.69-0.8-6.52c0.78,0.02,7.99,0.22,9.67,0.26c-1.09,0.92-3.56,3.02-3.56,3.02l0.4,0.71c0,0,5.15-1.76,5.41-1.85c0.25,0.1,4.3,1.65,4.3,1.65s-2.13-2.57-2.81-3.38c3.78,0.2,4.75,0.42,5.01,0.74c0.33,0.39,0.5,0.96,0.5,1.6c0,1.16-0.58,2.57-1.8,3.73c-1.82-0.46-5.17-2.34-5.21-2.36l-0.52,0.62L24.96,34l0.24-0.05c3.82-0.78,8.44-8.48,8.63-8.81L34,24.87L33.78,24.64z M21.02,16.65c-1.22,0.16-2.77,0.37-3.21,0.43c0-0.33,0-1.17,0-2c1.62-0.13,3.11-0.25,3.49-0.29C21.25,15.06,21.15,15.77,21.02,16.65z M16.09,15.22c0.02,0.84,0.04,1.75,0.05,2.06c-1.41,0.16-2.6,0.26-3.55,0.3c0.1-0.62,0.19-1.31,0.3-2.1C13.13,15.46,14.51,15.35,16.09,15.22z M12.03,20.65c0.08-0.35,0.17-0.76,0.26-1.24c1.3-0.24,2.61-0.46,3.89-0.63c0.01,0.48,0.03,1.1,0.04,1.52C15.97,20.31,14.26,20.46,12.03,20.65zM17.8,20.17c0-0.48,0-1.18,0-1.6c0.98-0.1,1.36-0.08,1.96-0.02l0.96,0.06c-0.07,0.46-0.14,0.92-0.2,1.35C19.43,20.04,18.19,20.14,17.8,20.17z"/>
  </g>
  <g id="flower">
   <rect x="1" y="1" fill="#F8F6D8" stroke="#F8F6D8" width="43" height="67"/>
   <path fill="#D3BB54" d="M11.27,58.16l-0.71-8.35c1.76-0.67,2.92-1.76,2.83-2.86c-0.09-1.1-1.42-1.91-3.26-2.16l-0.71-8.36c1.76-0.67,2.92-1.76,2.83-2.86c-0.13-1.56-2.69-2.54-5.71-2.19c-3.02,0.35-5.37,1.89-5.23,3.44c0.09,1.1,1.42,1.91,3.25,2.16l0.71,8.36c-1.76,0.67-2.92,1.76-2.83,2.86c0.09,1.1,1.42,1.91,3.25,2.16l0.71,8.36c-1.76,0.67-2.92,1.76-2.83,2.86c0.13,1.55,2.69,2.53,5.71,2.19c3.02-0.35,5.37-1.89,5.23-3.44C14.43,59.22,13.11,58.41,11.27,58.16z M4.34,34.47c-0.05-0.58,1-1.18,2.34-1.34c1.34-0.15,2.47,0.2,2.52,0.78c0.04,0.49-0.7,0.99-1.74,1.23l0.61,7.13c0.05,0.56-0.19,1.04-0.52,1.08c-0.34,0.04-0.65-0.38-0.7-0.94l-0.61-7.13C5.19,35.28,4.38,34.96,4.34,34.47z M4.57,47.95c-0.05-0.58,1.41-1.23,3.25-1.44c1.85-0.21,3.39,0.09,3.43,0.67c0.05,0.58-1.41,1.23-3.25,1.44C6.15,48.84,4.62,48.54,4.57,47.95z M9.15,62c-1.34,0.15-2.47-0.19-2.52-0.78c-0.04-0.49,0.7-0.99,1.74-1.23l-0.61-7.13c-0.05-0.56,0.19-1.04,0.52-1.08c0.33-0.04,0.65,0.38,0.69,0.94l0.61,7.13c1.06,0,1.87,0.32,1.91,0.81C11.54,61.25,10.49,61.85,9.15,62z"/>
   <path fill="none" stroke="#7C5A2D" stroke-width="0.25" d="M11.27,58.16l-0.71-8.35c1.76-0.67,2.92-1.76,2.83-2.86c-0.09-1.1-1.42-1.91-3.26-2.16l-0.71-8.36c1.76-0.67,2.92-1.76,2.83-2.86c-0.13-1.56-2.69-2.54-5.71-2.19c-3.02,0.35-5.37,1.89-5.23,3.44c0.09,1.1,1.42,1.91,3.25,2.16l0.71,8.36c-1.76,0.67-2.92,1.76-2.83,2.86c0.09,1.1,1.42,1.91,3.25,2.16l0.71,8.36c-1.76,0.67-2.92,1.76-2.83,2.86c0.13,1.55,2.69,2.53,5.71,2.19c3.02-0.35,5.37-1.89,5.23-3.44C14.43,59.22,13.11,58.41,11.27,58.16z M4.34,34.47c-0.05-0.58,1-1.18,2.34-1.34c1.34-0.15,2.47,0.2,2.52,0.78c0.04,0.49-0.7,0.99-1.74,1.23l0.61,7.13c0.05,0.56-0.19,1.04-0.52,1.08c-0.34,0.04-0.65-0.38-0.7-0.94l-0.61-7.13C5.19,35.28,4.38,34.96,4.34,34.47z M4.57,47.95c-0.05-0.58,1.41-1.23,3.25-1.44c1.85-0.21,3.39,0.09,3.43,0.67c0.05,0.58-1.41,1.23-3.25,1.44C6.15,48.84,4.62,48.54,4.57,47.95z M9.15,62c-1.34,0.15-2.47-0.19-2.52-0.78c-0.04-0.49,0.7-0.99,1.74-1.23l-0.61-7.13c-0.05-0.56,0.19-1.04,0.52-1.08c0.33-0.04,0.65,0.38,0.69,0.94l0.61,7.13c1.06,0,1.87,0.32,1.91,0.81C11.54,61.25,10.49,61.85,9.15,62z"/>
   <path fill="#EADDA7" stroke="#7C5A2D" stroke-width="0.25" d="M5.23,67.99c2.49-8.18-3.33-18.78-3.33-18.78s10.4,10.59,7.48,18.78H5.23z"/>
   <path fill="#DBC879" d="M19.02,36.17c-2.92-0.98-5.59-0.56-5.97,0.94c-0.27,1.06,0.7,2.38,2.33,3.41l-2.03,8.06c-1.85-0.14-3.28,0.37-3.54,1.43c-0.27,1.06,0.7,2.38,2.33,3.41l-2.03,8.06c-1.84-0.14-3.27,0.37-3.54,1.43c-0.38,1.5,1.68,3.51,4.6,4.5c2.92,0.98,5.59,0.56,5.96-0.94c0.27-1.06-0.7-2.38-2.32-3.41l2.03-8.06c1.85,0.14,3.28-0.37,3.55-1.43c0.27-1.06-0.71-2.38-2.33-3.41l2.03-8.06c1.84,0.14,3.28-0.37,3.54-1.43C23.99,39.16,21.94,37.15,19.02,36.17z M14.41,57.04l-1.73,6.88c0.98,0.45,1.63,1.1,1.51,1.58c-0.14,0.56-1.31,0.66-2.6,0.23c-1.3-0.44-2.23-1.25-2.09-1.81c0.12-0.47,0.97-0.62,2.01-0.39l1.73-6.88c0.13-0.54,0.51-0.88,0.83-0.77C14.39,55.98,14.54,56.5,14.41,57.04z M18.32,52.88c-0.14,0.56-1.7,0.53-3.48-0.07c-1.78-0.6-3.11-1.54-2.97-2.11c0.14-0.56,1.7-0.53,3.48,0.07C17.13,51.37,18.46,52.32,18.32,52.88z M20.68,39.67c-0.12,0.47-0.97,0.62-2.01,0.39l-1.73,6.88c-0.13,0.54-0.51,0.88-0.83,0.77c-0.32-0.11-0.48-0.63-0.34-1.17l1.73-6.88c-0.98-0.45-1.63-1.1-1.51-1.58c0.14-0.56,1.31-0.67,2.6-0.23C19.89,38.3,20.82,39.11,20.68,39.67z"/>
   <path fill="none" stroke="#7C5A2D" stroke-width="0.25" d="M19.02,36.17c-2.92-0.98-5.59-0.56-5.97,0.94c-0.27,1.06,0.7,2.38,2.33,3.41l-2.03,8.06c-1.85-0.14-3.28,0.37-3.54,1.43c-0.27,1.06,0.7,2.38,2.33,3.41l-2.03,8.06c-1.84-0.14-3.27,0.37-3.54,1.43c-0.38,1.5,1.68,3.51,4.6,4.5c2.92,0.98,5.59,0.56,5.96-0.94c0.27-1.06-0.7-2.38-2.32-3.41l2.03-8.06c1.85,0.14,3.28-0.37,3.55-1.43c0.27-1.06-0.71-2.38-2.33-3.41l2.03-8.06c1.84,0.14,3.28-0.37,3.54-1.43C23.99,39.16,21.94,37.15,19.02,36.17z M14.41,57.04l-1.73,6.88c0.98,0.45,1.63,1.1,1.51,1.58c-0.14,0.56-1.31,0.66-2.6,0.23c-1.3-0.44-2.23-1.25-2.09-1.81c0.12-0.47,0.97-0.62,2.01-0.39l1.73-6.88c0.13-0.54,0.51-0.88,0.83-0.77C14.39,55.98,14.54,56.5,14.41,57.04z M18.32,52.88c-0.14,0.56-1.7,0.53-3.48-0.07c-1.78-0.6-3.11-1.54-2.97-2.11c0.14-0.56,1.7-0.53,3.48,0.07C17.13,51.37,18.46,52.32,18.32,52.88z M20.68,39.67c-0.12,0.47-0.97,0.62-2.01,0.39l-1.73,6.88c-0.13,0.54-0.51,0.88-0.83,0.77c-0.32-0.11-0.48-0.63-0.34-1.17l1.73-6.88c-0.98-0.45-1.63-1.1-1.51-1.58c0.14-0.56,1.31-0.67,2.6-0.23C19.89,38.3,20.82,39.11,20.68,39.67z"/>
   <path fill="#EADA9B" stroke="#7C5A2D" stroke-width="0.25" d="M19.85,67.7c-1.77-5.79,2.35-13.28,2.35-13.28s-7.35,7.49-5.29,13.28H19.85z"/>
   <path fill="#BFAA52" stroke="#7C5A2D" d="M30.33,52.2c-10.89,0-12.13-1.84-15.85-5.97c4.7-3.44,10.9-3.9,16.34,4.82L30.33,52.2z"/>
   <path fill="#DBC775" d="M27.52,50.68c-6.89,0-7.68-1.16-10.03-3.78c2.98-2.18,6.9-2.47,10.34,3.05L27.52,50.68z"/>
   <path fill="#BFAA52" stroke="#7C5A2D" d="M42.27,47.51c-0.36,2.52-6.85,4.67-9.62,5.14c-2.77,0.47,1.52-5.63,6.18-9.5C41.78,42.64,42.5,45.94,42.27,47.51z"/>
   <path fill="#DBC775" d="M37.59,49.31c-0.15,1.08-2.95,2.01-4.14,2.21c-1.19,0.2,0.66-2.42,2.66-4.09C37.38,47.21,37.69,48.63,37.59,49.31z"/>
   <path fill="#E5D389" stroke="#7C5A2D" stroke-width="0.75" d="M38.25,67.92c-7.82-3.7-5.44-11.92-5.44-18.72l-2.23-0.29c0,0-2.8,17.48,4.83,18.76L38.25,67.92z"/>
   <path fill="#BFAA52" stroke="#7C5A2D" d="M43.33,52.91v7.75c0,0-2.47,2.07-4.21,2.07c-1.73,0-6.93-9.55-6.44-10.59C33.19,51.1,42.84,50.85,43.33,52.91z"/>
   <path fill="#DBC775" d="M40.06,53.5c1.02,0.72,0,3.43,0,3.43s-1.33,0.91-2.27,0.91c-0.93,0-3.73-4.22-3.47-4.68S39.04,52.79,40.06,53.5z"/>
   <path fill="#BFAA52" stroke="#7C5A2D" d="M31.45,52.39c-12.87-1.29-10.89,4.39-14.11,10.07C27.49,65.3,28.23,57.04,31.45,52.39z"/>
   <path fill="#E2CF7F" d="M30.26,53.1c-8.21-0.82-6.95,2.8-9,6.42C27.74,61.34,28.21,56.07,30.26,53.1z"/>
   <path fill="#BFAA52" stroke="#7C5A2D" d="M32.93,50.42c0,0,3.69-9.06-0.25-11.11c-4.04-2.11-6.64-1.29-7.13,0c-0.5,1.29,3.91,12.41,5.65,12.66C32.93,52.23,32.93,50.42,32.93,50.42z"/>
   <path fill="#DBC775" d="M32.14,50.27c0,0,2.05-5.67-0.14-6.95c-2.24-1.32-3.68-0.81-3.96,0c-0.28,0.81,2.17,7.76,3.13,7.92C32.14,51.4,32.14,50.27,32.14,50.27z"/>
   <path fill="#EADDA7" stroke="#7C5A2D" stroke-width="0.25" d="M31.45,51.12c0,0-1.48-2.54-1.23-4.87"/>
   <path fill="#BFAA52" stroke="#7C5A2D" d="M30.33,52.6c0,0-4.13,5.57-2.01,5.48c2.41-0.11,2.6,0,5.1,0.46c2.57,0.47,0.2-5.55-1.6-6.32L30.33,52.6z"/>
   <path fill="#DBC879" stroke="#7C5A2D" stroke-width="0.5" d="M27.27,48.13c0,0,2.02,2.93,3.35,2.93c1.33,0,0.61,2.18,0,1.56C30,51.99,28.15,50.19,27.05,50C26.23,50,26.04,47.66,27.27,48.13z"/>
   <path fill="#D3BB54" stroke="#AF9A41" d="M44,12.51c-4.46,0-8.54,2.85-8.54,6.37c0,3.52,4.08,6.37,8.54,6.37V12.51z"/>
   <path fill="#D3BB54" stroke="#AF9A41" d="M33.33,7.64c0-3.52-3.62-6.23-8.08-6.23c-4.46,0-8.08,2.71-8.08,6.23s3.62,6.37,8.08,6.37C29.71,14.01,33.33,11.16,33.33,7.64z"/>
   <ellipse fill="#D3BB54" stroke="#AF9A41" cx="29.56" cy="17.54" rx="8.08" ry="6.37"/>
   <path fill="#DBC879" stroke="#AF9A41" d="M44,16.35V1.42H30.9c-2.93,1.56-3.79,4.49-3.79,7.49c0,4.79,4.93,8.68,11.02,8.68C40.21,17.58,42.34,17.13,44,16.35z"/>
   <path fill="#D3BB54" stroke="#AF9A41" d="M31.94,15.47c0,0-0.72,1.82-3.03,1.82"/>
   <path fill="#D3BB54" stroke="#AF9A41" d="M27.19,6.62c0,0-1.73,0.57-3.17-1.02"/>
   <path fill="#663333" d="M44,0H0v69h45V0H44z M43,2c0,1.91,0,63.09,0,65c-1.86,0-39.14,0-41,0C2,65.09,2,3.91,2,2C3.86,2,41.14,2,43,2z"/>
   <path fill="#E2CF7F" d="M31.13,52.9c0,0-1.71,2.31-0.83,2.27c1-0.04,1.08,0,2.11,0.19c1.06,0.2,0.08-2.3-0.66-2.62L31.13,52.9z"/>
  </g>
  <g id="season">
   <rect x="1" y="1" fill="#E3E4FF" width="43" height="67"/>
   <polygon fill="#CAE0FF" stroke="#99B9FF" points="4.69,42.38 9.02,39.76 10.2,44.33 6.26,48.26 8.62,49.89 10.2,48.26 10.98,51.52 14.91,51.19 14.52,47.93 17.27,49.24 18.85,47.28 14.13,44.01 13.34,39.44 19.24,41.4 20.81,45.97 23.56,44.99 22.77,42.7 26.71,44.33 28.28,41.07 23.96,39.44 27.11,38.45 25.92,36.17 20.42,37.8 14.91,35.84 20.03,32.9 25.92,33.88 26.31,31.27 23.17,30.94 26.31,28.98 23.96,26.37 20.81,28 20.81,26.04 18.06,25.71 17.27,30.61 12.55,33.23 11.77,28.66 15.7,24.41 12.95,23.1 11.38,25.06 10.58,21.47 7.05,22.12 7.45,25.39 4.69,24.08 3.12,25.71 7.45,28.66 8.23,33.55 3.12,31.92 1,27.81 1,34.92 1.16,34.86 6.26,36.82 1.55,39.76 1,39.66 1,45.06 1.16,44.99 1,45.91 1,47.31 3.51,47.6"/>
   <path fill="#99B9FF" stroke="#678ED3" d="M40.63,26.67c1.1,0,2.17-0.13,3.21-0.35V1.5h-14.3c-2.44,2.67-3.95,6.22-3.95,10.13C25.59,19.94,32.32,26.67,40.63,26.67z"/>
   <polygon fill="#C9D3F2" stroke="#9EB3E8" stroke-width="0.5" points="22.61,14.9 22.3,14.59 20.96,16.9 23.27,18.23 23.39,17.81"/>
   <polygon fill="#C9D3F2" stroke="#9EB3E8" stroke-width="0.5" points="34.45,28.87 34.03,28.98 35.36,31.29 37.67,29.96 37.35,29.65"/>
   <polygon fill="#798CD8" points="43.83,30.1 43.83,29.71 43.59,29.96"/>
   <polygon fill="#C9D3F2" stroke="#9EB3E8" stroke-width="0.5" points="23.39,5.45 23.27,5.03 20.96,6.36 22.3,8.67 22.61,8.36"/>
   <polygon fill="#99B9FF" stroke="#678ED3" points="23.31,15.6 23.31,7.66 22.61,8.36 22.3,8.67 19.34,11.63 22.3,14.59 22.61,14.9"/>
   <polygon fill="#C9D3F2" stroke="#9EB3E8" stroke-width="0.5" points="26.66,23.47 26.23,23.36 26.23,26.02 28.9,26.02 28.78,25.6"/>
   <polygon fill="#99B9FF" stroke="#678ED3" points="37.35,29.65 37.67,29.96 40.63,32.92 43.59,29.96 43.83,29.71 43.83,28.95 36.66,28.95"/>
   <polygon fill="#99B9FF" stroke="#678ED3" points="35.41,28.61 28.53,24.64 28.78,25.6 28.9,26.02 29.98,30.07 34.03,28.98 34.45,28.87"/>
   <polygon fill="#99B9FF" stroke="#678ED3" points="27.61,23.73 23.64,16.85 23.39,17.81 23.27,18.23 22.19,22.27 26.23,23.36 26.66,23.47"/>
   <polygon fill="#99B9FF" stroke="#678ED3" points="23.39,5.45 23.64,6.41 26.48,1.5 22.33,1.5 23.27,5.03 "/>
   <path fill="#99B9FF" stroke="#678ED3" d="M30.67,46.67c0,0,2.32-3,7-3c5.67,0,5.67,9.33,5.67,9.33H19.67c0,0-0.33-6.67,7.67-6.67c3.67,0,6,4,6,4"/>
   <line fill="#99B9FF" stroke="#678ED3" x1="29.5" y1="57.27" x2="24.83" y2="65.36"/>
   <line fill="#99B9FF" stroke="#678ED3" x1="34.22" y1="55.68" x2="28.68" y2="65.95"/>
   <line fill="#99B9FF" stroke="#678ED3" x1="23.33" y1="61" x2="20.5" y2="65.91"/>
   <line fill="#99B9FF" stroke="#678ED3" x1="37.46" y1="54.63" x2="33.25" y2="62.59"/>
   <line fill="#99B9FF" stroke="#678ED3" x1="40.46" y1="62.17" x2="38.13" y2="66.21"/>
   <line fill="#99B9FF" stroke="#678ED3" x1="27.11" y1="54.52" x2="24.44" y2="59.14"/>
   <line fill="#99B9FF" stroke="#678ED3" x1="31.67" y1="54" x2="30.67" y2="55.73"/>
   <line fill="#99B9FF" stroke="#678ED3" x1="40.98" y1="55.6" x2="37.81" y2="61.09"/>
   <line fill="#99B9FF" stroke="#678ED3" x1="23.84" y1="55.04" x2="22.18" y2="57.92"/>
   <line fill="#99B9FF" stroke="#678ED3" x1="21.13" y1="55.63" x2="16.91" y2="63.59"/>
   <line fill="#99B9FF" stroke="#678ED3" x1="36" y1="63.6" x2="35" y2="65.33"/>
   <path fill="#678ED3" d="M44,0H0v69h45V0H44z M43,2c0,1.91,0,63.09,0,65c-1.86,0-39.14,0-41,0C2,65.09,2,3.91,2,2C3.86,2,41.14,2,43,2z"/>
  </g>
 </defs>
 <use x="0" y="0" xlink:href="#bt1"/>
 <use x="64" y="0" xlink:href="#bt1"/>
 <use x="128" y="0" xlink:href="#bt1"/>
 <use x="192" y="0" xlink:href="#bt1"/>
 <use x="256" y="0" xlink:href="#bt1"/>
 <use x="320" y="0" xlink:href="#bt1"/>
 <use x="384" y="0" xlink:href="#bt1"/>
 <use x="448" y="0" xlink:href="#bt1"/>
 <use x="512" y="0" xlink:href="#bt1"/>
 <use x="576" y="0" xlink:href="#bt1"/>
 <use x="640" y="0" xlink:href="#bt1"/>
 <use x="704" y="0" xlink:href="#bt1"/>
 <use x="768" y="0" xlink:href="#bt1"/>
 <use x="832" y="0" xlink:href="#bt1"/>
 <use x="896" y="0" xlink:href="#bt1"/>
 <use x="960" y="0" xlink:href="#bt1"/>
 <use x="1024" y="0" xlink:href="#bt1"/>
 <use x="1088" y="0" xlink:href="#bt1"/>
 <use x="1152" y="0" xlink:href="#bt1"/>
 <use x="1216" y="0" xlink:href="#bt1"/>
 <use x="1280" y="0" xlink:href="#bt1"/>
 <use x="1344" y="0" xlink:href="#bt1"/>
 <use x="1408" y="0" xlink:href="#bt1"/>
 <use x="1472" y="0" xlink:href="#bt1"/>
 <use x="1536" y="0" xlink:href="#bt1"/>
 <use x="1600" y="0" xlink:href="#bt1"/>
 <use x="1664" y="0" xlink:href="#bt1"/>
 <use x="1728" y="0" xlink:href="#bt1"/>
 <use x="1792" y="0" xlink:href="#bt1"/>
 <use x="1856" y="0" xlink:href="#bt1"/>
 <use x="1920" y="0" xlink:href="#bt1"/>
 <use x="1984" y="0" xlink:href="#bt1"/>
 <use x="2048" y="0" xlink:href="#bt1"/>
 <use x="2112" y="0" xlink:href="#bt1"/>
 <use x="2176" y="0" xlink:href="#bt1"/>
 <use x="2240" y="0" xlink:href="#bt1"/>
 <use x="2304" y="0" xlink:href="#bt1"/>
 <use x="2368" y="0" xlink:href="#bt1"/>
 <use x="2432" y="0" xlink:href="#bt1"/>
 <use x="2496" y="0" xlink:href="#bt1"/>
 <use x="2560" y="0" xlink:href="#bt1"/>
 <use x="2624" y="0" xlink:href="#bt1"/>
 <use x="2688" y="0" xlink:href="#bt1"/>
 <use x="0" y="88" xlink:href="#bt2"/>
 <use x="64" y="88" xlink:href="#bt2"/>
 <use x="128" y="88" xlink:href="#bt2"/>
 <use x="192" y="88" xlink:href="#bt2"/>
 <use x="256" y="88" xlink:href="#bt2"/>
 <use x="320" y="88" xlink:href="#bt2"/>
 <use x="384" y="88" xlink:href="#bt2"/>
 <use x="448" y="88" xlink:href="#bt2"/>
 <use x="512" y="88" xlink:href="#bt2"/>
 <use x="576" y="88" xlink:href="#bt2"/>
 <use x="640" y="88" xlink:href="#bt2"/>
 <use x="704" y="88" xlink:href="#bt2"/>
 <use x="768" y="88" xlink:href="#bt2"/>
 <use x="832" y="88" xlink:href="#bt2"/>
 <use x="896" y="88" xlink:href="#bt2"/>
 <use x="960" y="88" xlink:href="#bt2"/>
 <use x="1024" y="88" xlink:href="#bt2"/>
 <use x="1088" y="88" xlink:href="#bt2"/>
 <use x="1152" y="88" xlink:href="#bt2"/>
 <use x="1216" y="88" xlink:href="#bt2"/>
 <use x="1280" y="88" xlink:href="#bt2"/>
 <use x="1344" y="88" xlink:href="#bt2"/>
 <use x="1408" y="88" xlink:href="#bt2"/>
 <use x="1472" y="88" xlink:href="#bt2"/>
 <use x="1536" y="88" xlink:href="#bt2"/>
 <use x="1600" y="88" xlink:href="#bt2"/>
 <use x="1664" y="88" xlink:href="#bt2"/>
 <use x="1728" y="88" xlink:href="#bt2"/>
 <use x="1792" y="88" xlink:href="#bt2"/>
 <use x="1856" y="88" xlink:href="#bt2"/>
 <use x="1920" y="88" xlink:href="#bt2"/>
 <use x="1984" y="88" xlink:href="#bt2"/>
 <use x="2048" y="88" xlink:href="#bt2"/>
 <use x="2112" y="88" xlink:href="#bt2"/>
 <use x="2176" y="88" xlink:href="#bt2"/>
 <use x="2240" y="88" xlink:href="#bt2"/>
 <use x="2304" y="88" xlink:href="#bt2"/>
 <use x="2368" y="88" xlink:href="#bt2"/>
 <use x="2432" y="88" xlink:href="#bt2"/>
 <use x="2496" y="88" xlink:href="#bt2"/>
 <use x="2560" y="88" xlink:href="#bt2"/>
 <use x="2624" y="88" xlink:href="#bt2"/>
 <use x="2688" y="88" xlink:href="#bt2"/>
 <use x="979" y="41" xlink:href="#nums"/>
 <use x="1043" y="41" xlink:href="#nums"/>
 <use x="1107" y="41" xlink:href="#nums"/>
 <use x="1171" y="41" xlink:href="#nums"/>
 <use x="1235" y="41" xlink:href="#nums"/>
 <use x="1299" y="41" xlink:href="#nums"/>
 <use x="1363" y="41" xlink:href="#nums"/>
 <use x="1427" y="41" xlink:href="#nums"/>
 <use x="1491" y="41" xlink:href="#nums"/>
 <use x="979" y="129" xlink:href="#nums"/>
 <use x="1043" y="129" xlink:href="#nums"/>
 <use x="1107" y="129" xlink:href="#nums"/>
 <use x="1171" y="129" xlink:href="#nums"/>
 <use x="1235" y="129" xlink:href="#nums"/>
 <use x="1299" y="129" xlink:href="#nums"/>
 <use x="1363" y="129" xlink:href="#nums"/>
 <use x="1427" y="129" xlink:href="#nums"/>
 <use x="1491" y="129" xlink:href="#nums"/>
 <use x="2125" y="6" xlink:href="#season"/>
 <use x="2189" y="6" xlink:href="#season"/>
 <use x="2253" y="6" xlink:href="#season"/>
 <use x="2317" y="6" xlink:href="#season"/>
 <use x="2125" y="94" xlink:href="#season"/>
 <use x="2189" y="94" xlink:href="#season"/>
 <use x="2253" y="94" xlink:href="#season"/>
 <use x="2317" y="94" xlink:href="#season"/>
 <use x="2445" y="6" xlink:href="#flower"/>
 <use x="2509" y="6" xlink:href="#flower"/>
 <use x="2573" y="6" xlink:href="#flower"/>
 <use x="2637" y="6" xlink:href="#flower"/>
 <use x="2445" y="94" xlink:href="#flower"/>
 <use x="2509" y="94" xlink:href="#flower"/>
 <use x="2573" y="94" xlink:href="#flower"/>
 <use x="2637" y="94" xlink:href="#flower"/>
 <use transform="translate(88.5,16.5) scale(1.22)" xlink:href="#dots"/>
 <use transform="translate(88.5,42.5) scale(1.22)" xlink:href="#dots"/>
 <use transform="translate(88.5,104.5) scale(1.22)" xlink:href="#dots"/>
 <use transform="translate(88.5,130.5) scale(1.22)" xlink:href="#dots"/>
 <use transform="translate(144.5,12.5)" xlink:href="#dots"/>
 <use transform="translate(144.5,100.5)" xlink:href="#dots"/>
 <use transform="translate(154.5,31.5)" xlink:href="#dots2"/>
 <use transform="translate(154.5,119.5)" xlink:href="#dots2"/>
 <use transform="translate(164.5,50.5)" xlink:href="#dots"/>
 <use transform="translate(164.5,138.5)" xlink:href="#dots"/>
 <use transform="translate(209,15) scale(.94)" xlink:href="#dots"/>
 <use transform="translate(209,49) scale(.94)" xlink:href="#dots"/>
 <use transform="translate(209,103) scale(.94)" xlink:href="#dots"/>
 <use transform="translate(209,137) scale(.94)" xlink:href="#dots"/>
 <use transform="translate(229,15) scale(.94)" xlink:href="#dots"/>
 <use transform="translate(229,49) scale(.94)" xlink:href="#dots"/>
 <use transform="translate(229,103) scale(.94)" xlink:href="#dots"/>
 <use transform="translate(229,137) scale(.94)" xlink:href="#dots"/>
 <use transform="translate(273.5,13.5) scale(.88)" xlink:href="#dots"/>
 <use transform="translate(273.5,51.5) scale(.88)" xlink:href="#dots"/>
 <use transform="translate(273.5,101.5) scale(.88)" xlink:href="#dots"/>
 <use transform="translate(273.5,139.5) scale(.88)" xlink:href="#dots"/>
 <use transform="translate(283.5,32.5) scale(.88)" xlink:href="#dots2"/>
 <use transform="translate(283.5,120.5) scale(.88)" xlink:href="#dots2"/>
 <use transform="translate(293.5,13.5) scale(.88)" xlink:href="#dots"/>
 <use transform="translate(293.5,51.5) scale(.88)" xlink:href="#dots"/>
 <use transform="translate(293.5,101.5) scale(.88)" xlink:href="#dots"/>
 <use transform="translate(293.5,139.5) scale(.88)" xlink:href="#dots"/>
 <use transform="translate(340,14) scale(.72)" xlink:href="#dots"/>
 <use transform="translate(340,37) scale(.72)" xlink:href="#dots2"/>
 <use transform="translate(340,54) scale(.72)" xlink:href="#dots2"/>
 <use transform="translate(340,102) scale(.72)" xlink:href="#dots"/>
 <use transform="translate(340,125) scale(.72)" xlink:href="#dots2"/>
 <use transform="translate(340,142) scale(.72)" xlink:href="#dots2"/>
 <use transform="translate(358,14) scale(.72)" xlink:href="#dots"/>
 <use transform="translate(358,37) scale(.72)" xlink:href="#dots2"/>
 <use transform="translate(358,54) scale(.72)" xlink:href="#dots2"/>
 <use transform="translate(358,102) scale(.72)" xlink:href="#dots"/>
 <use transform="translate(358,125) scale(.72)" xlink:href="#dots2"/>
 <use transform="translate(358,142) scale(.72)" xlink:href="#dots2"/>
 <use transform="translate(399,10) scale(.72)" xlink:href="#dots"/>
 <use transform="translate(404,41) scale(.72)" xlink:href="#dots2"/>
 <use transform="translate(404,58) scale(.72)" xlink:href="#dots2"/>
 <use transform="translate(413,17) scale(.72)" xlink:href="#dots"/>
 <use transform="translate(427,24) scale(.72)" xlink:href="#dots"/>
 <use transform="translate(404,129) scale(.72)" xlink:href="#dots2"/>
 <use transform="translate(404,146) scale(.72)" xlink:href="#dots2"/>
 <use transform="translate(399,98) scale(.72)" xlink:href="#dots"/>
 <use transform="translate(422,41) scale(.72)" xlink:href="#dots2"/>
 <use transform="translate(422,58) scale(.72)" xlink:href="#dots2"/>
 <use transform="translate(413,105) scale(.72)" xlink:href="#dots"/>
 <use transform="translate(427,112) scale(.72)" xlink:href="#dots"/>
 <use transform="translate(422,129) scale(.72)" xlink:href="#dots2"/>
 <use transform="translate(422,146) scale(.72)" xlink:href="#dots2"/>
 <use transform="translate(469,10) scale(.72)" xlink:href="#dots"/>
 <use transform="translate(469,26) scale(.72)" xlink:href="#dots"/>
 <use transform="translate(469,42) scale(.72)" xlink:href="#dots"/>
 <use transform="translate(469,58) scale(.72)" xlink:href="#dots"/>
 <use transform="translate(469,98) scale(.72)" xlink:href="#dots"/>
 <use transform="translate(469,114) scale(.72)" xlink:href="#dots"/>
 <use transform="translate(469,130) scale(.72)" xlink:href="#dots"/>
 <use transform="translate(469,146) scale(.72)" xlink:href="#dots"/>
 <use transform="translate(485,10) scale(.72)" xlink:href="#dots"/>
 <use transform="translate(485,26) scale(.72)" xlink:href="#dots"/>
 <use transform="translate(485,42) scale(.72)" xlink:href="#dots"/>
 <use transform="translate(485,58) scale(.72)" xlink:href="#dots"/>
 <use transform="translate(485,98) scale(.72)" xlink:href="#dots"/>
 <use transform="translate(485,114) scale(.72)" xlink:href="#dots"/>
 <use transform="translate(485,130) scale(.72)" xlink:href="#dots"/>
 <use transform="translate(485,146) scale(.72)" xlink:href="#dots"/>
 <use transform="translate(526,14) scale(.72)" xlink:href="#dots"/>
 <use transform="translate(526,34) scale(.72)" xlink:href="#dots2"/>
 <use transform="translate(526,54) scale(.72)" xlink:href="#dots"/>
 <use transform="translate(526,102) scale(.72)" xlink:href="#dots"/>
 <use transform="translate(526,122) scale(.72)" xlink:href="#dots2"/>
 <use transform="translate(526,142) scale(.72)" xlink:href="#dots"/>
 <use transform="translate(541,14) scale(.72)" xlink:href="#dots"/>
 <use transform="translate(541,34) scale(.72)" xlink:href="#dots2"/>
 <use transform="translate(541,54) scale(.72)" xlink:href="#dots"/>
 <use transform="translate(541,102) scale(.72)" xlink:href="#dots"/>
 <use transform="translate(541,122) scale(.72)" xlink:href="#dots2"/>
 <use transform="translate(541,142) scale(.72)" xlink:href="#dots"/>
 <use transform="translate(556,14) scale(.72)" xlink:href="#dots"/>
 <use transform="translate(556,34) scale(.72)" xlink:href="#dots2"/>
 <use transform="translate(556,54) scale(.72)" xlink:href="#dots"/>
 <use transform="translate(556,102) scale(.72)" xlink:href="#dots"/>
 <use transform="translate(556,122) scale(.72)" xlink:href="#dots2"/>
 <use transform="translate(556,142) scale(.72)" xlink:href="#dots"/>
 <use transform="translate(1565,25) scale(1.18,1.15)" xlink:href="#bams"/>
 <use transform="translate(1565,113) scale(1.18,1.15)" xlink:href="#bams"/>
 <use transform="translate(1630,9.5)" xlink:href="#bams"/>
 <use transform="translate(1630,44.5)" xlink:href="#bams"/>
 <use transform="translate(1630,97.5)" xlink:href="#bams"/>
 <use transform="translate(1630,132.5)" xlink:href="#bams"/>
 <use transform="translate(1682,44.5)" xlink:href="#bams"/>
 <use transform="translate(1682,132.5)" xlink:href="#bams"/>
 <use transform="translate(1694,9.5)" xlink:href="#bams"/>
 <use transform="translate(1694,97.5)" xlink:href="#bams"/>
 <use transform="translate(1705,44.5)" xlink:href="#bams"/>
 <use transform="translate(1705,132.5)" xlink:href="#bams"/>
 <use transform="translate(1746,9.5)" xlink:href="#bams"/>
 <use transform="translate(1746,44.5)" xlink:href="#bams"/>
 <use transform="translate(1746,97.5)" xlink:href="#bams"/>
 <use transform="translate(1746,132.5)" xlink:href="#bams"/>
 <use transform="translate(1770,9.5)" xlink:href="#bams"/>
 <use transform="translate(1770,44.5)" xlink:href="#bams"/>
 <use transform="translate(1770,97.5)" xlink:href="#bams"/>
 <use transform="translate(1770,132.5)" xlink:href="#bams"/>
 <use transform="translate(1810,10.5) scale(.91,.925)" xlink:href="#bams"/>
 <use transform="translate(1810,45.5) scale(.91,.925)" xlink:href="#bams"/>
 <use transform="translate(1810,98.5) scale(.91,.925)" xlink:href="#bams"/>
 <use transform="translate(1810,133.5) scale(.91,.925)" xlink:href="#bams"/>
 <use transform="translate(1822.5,116) scale(.91,.925)" xlink:href="#bams2"/>
 <use transform="translate(1822.5,28) scale(.91,.925)" xlink:href="#bams2"/>
 <use transform="translate(1835,10.5) scale(.91,.925)" xlink:href="#bams"/>
 <use transform="translate(1835,45.5) scale(.91,.925)" xlink:href="#bams"/>
 <use transform="translate(1835,98.5) scale(.91,.925)" xlink:href="#bams"/>
 <use transform="translate(1835,133.5) scale(.91,.925)" xlink:href="#bams"/>
 <use transform="translate(1875,12.5) scale(.82,.85)" xlink:href="#bams"/>
 <use transform="translate(1875,45.5) scale(.82,.85)" xlink:href="#bams"/>
 <use transform="translate(1875,100.5) scale(.82,.85)" xlink:href="#bams"/>
 <use transform="translate(1875,133.5) scale(.82,.85)" xlink:href="#bams"/>
 <use transform="translate(1887,12.5) scale(.82,.85)" xlink:href="#bams"/>
 <use transform="translate(1887,45.5) scale(.82,.85)" xlink:href="#bams"/>
 <use transform="translate(1887,100.5) scale(.82,.85)" xlink:href="#bams"/>
 <use transform="translate(1887,133.5) scale(.82,.85)" xlink:href="#bams"/>
 <use transform="translate(1899,12.5) scale(.82,.85)" xlink:href="#bams"/>
 <use transform="translate(1899,45.5) scale(.82,.85)" xlink:href="#bams"/>
 <use transform="translate(1899,100.5) scale(.82,.85)" xlink:href="#bams"/>
 <use transform="translate(1899,133.5) scale(.82,.85)" xlink:href="#bams"/>
 <use transform="translate(1939.5,31.5) scale(.73,.66)" xlink:href="#bams"/>
 <use transform="translate(1951.5,31.5) scale(.73,.66)" xlink:href="#bams"/>
 <use transform="translate(1963.5,31.5) scale(.73,.66)" xlink:href="#bams"/>
 <use transform="translate(1939.5,50.5) scale(.73,.66)" xlink:href="#bams"/>
 <use transform="translate(1951.5,50.5) scale(.73,.66)" xlink:href="#bams"/>
 <use transform="translate(1963.5,50.5) scale(.73,.66)" xlink:href="#bams"/>
 <use transform="translate(1939.5,119.5) scale(.73,.66)" xlink:href="#bams"/>
 <use transform="translate(1951.5,119.5) scale(.73,.66)" xlink:href="#bams"/>
 <use transform="translate(1963.5,119.5) scale(.73,.66)" xlink:href="#bams"/>
 <use transform="translate(1939.5,138.5) scale(.73,.66)" xlink:href="#bams"/>
 <use transform="translate(1951.5,138.5) scale(.73,.66)" xlink:href="#bams"/>
 <use transform="translate(1963.5,138.5) scale(.73,.66)" xlink:href="#bams"/>
 <use transform="translate(1951.5,12.5)  scale(.73,.66)" xlink:href="#bams2"/>
 <use transform="translate(1951.5,100.5) scale(.73,.66)" xlink:href="#bams2"/>
 <use transform="translate(2003.5,13.5)  scale(.73,.77)" xlink:href="#bams"/>
 <use transform="translate(2003.5,46.5)  scale(.73,.77)" xlink:href="#bams"/>
 <use transform="translate(2003.5,101.5) scale(.73,.77)" xlink:href="#bams"/>
 <use transform="translate(2003.5,134.5) scale(.73,.77)" xlink:href="#bams"/>
 <use transform="translate(2027.5,13.5)  scale(.73,.77)" xlink:href="#bams"/>
 <use transform="translate(2027.5,46.5)  scale(.73,.77)" xlink:href="#bams"/>
 <use transform="translate(2027.5,101.5) scale(.73,.77)" xlink:href="#bams"/>
 <use transform="translate(2027.5,134.5) scale(.73,.77)" xlink:href="#bams"/>
 <use transform="translate(2067.5,12.5) scale(.73,.66)" xlink:href="#bams"/>
 <use transform="translate(2067.5,31.5) scale(.73,.66)" xlink:href="#bams"/>
 <use transform="translate(2067.5,50.5) scale(.73,.66)" xlink:href="#bams"/>
 <use transform="translate(2067.5,100.5) scale(.73,.66)" xlink:href="#bams"/>
 <use transform="translate(2067.5,119.5) scale(.73,.66)" xlink:href="#bams"/>
 <use transform="translate(2067.5,138.5) scale(.73,.66)" xlink:href="#bams"/>
 <use transform="translate(2079.5,12.5) scale(.73,.66)" xlink:href="#bams2"/>
 <use transform="translate(2079.5,31.5) scale(.73,.66)" xlink:href="#bams2"/>
 <use transform="translate(2079.5,50.5) scale(.73,.66)" xlink:href="#bams2"/>
 <use transform="translate(2079.5,100.5) scale(.73,.66)" xlink:href="#bams2"/>
 <use transform="translate(2079.5,119.5) scale(.73,.66)" xlink:href="#bams2"/>
 <use transform="translate(2079.5,138.5) scale(.73,.66)" xlink:href="#bams2"/>
 <use transform="translate(2091.5,12.5) scale(.73,.66)" xlink:href="#bams"/>
 <use transform="translate(2091.5,31.5) scale(.73,.66)" xlink:href="#bams"/>
 <use transform="translate(2091.5,50.5) scale(.73,.66)" xlink:href="#bams"/>
 <use transform="translate(2091.5,100.5) scale(.73,.66)" xlink:href="#bams"/>
 <use transform="translate(2091.5,119.5) scale(.73,.66)" xlink:href="#bams"/>
 <use transform="translate(2091.5,138.5) scale(.73,.66)" xlink:href="#bams"/>
 <path fill="#006C00" d="M2031.75,29.81c-0.41-0.59-1.51-0.57-2.75-0.06l-3.11-4.44c0.9-1,1.3-2.02,0.89-2.61c-0.41-0.58-1.51-0.57-2.75-0.06l-3.11-4.44c0.9-1,1.3-2.02,0.89-2.61c-0.58-0.83-2.51-0.47-4.32,0.8s-2.81,2.96-2.23,3.79c0.41,0.59,1.51,0.57,2.75,0.06l3.11,4.44c-0.9,1-1.3,2.02-0.89,2.61c0.41,0.59,1.51,0.57,2.75,0.06l3.11,4.44c-0.9,1-1.3,2.02-0.89,2.61c0.58,0.83,2.51,0.47,4.32-0.8S2032.33,30.64,2031.75,29.81z M2021.19,22.48l-2.65-3.79c-0.67,0.38-1.29,0.49-1.47,0.22c-0.22-0.31,0.26-1.02,1.06-1.58c0.8-0.56,1.63-0.77,1.85-0.46c0.18,0.26-0.13,0.8-0.71,1.3l2.65,3.79c0.21,0.3,0.21,0.65,0.01,0.79C2021.73,22.9,2021.4,22.77,2021.19,22.48z M2021.5,26.4c-0.22-0.31,0.5-1.19,1.61-1.96c1.11-0.78,2.18-1.15,2.4-0.84c0.22,0.31-0.5,1.19-1.61,1.96C2022.79,26.33,2021.71,26.71,2021.5,26.4z M2028.87,32.67c-0.8,0.56-1.63,0.77-1.85,0.46c-0.18-0.26,0.13-0.8,0.71-1.3l-2.65-3.79c-0.21-0.29-0.21-0.65-0.01-0.79c0.2-0.14,0.53-0.02,0.74,0.28l2.65,3.79c0.67-0.38,1.29-0.49,1.47-0.22C2030.15,31.39,2029.67,32.1,2028.87,32.67z"/>
 <path fill="#006C00" d="M2021.52,16.4c-1.81-1.27-3.75-1.62-4.32-0.8c-0.41,0.58-0.02,1.61,0.89,2.61l-3.11,4.44c-1.25-0.51-2.35-0.53-2.75,0.06c-0.41,0.59-0.02,1.61,0.89,2.61l-3.11,4.44c-1.25-0.51-2.34-0.53-2.75,0.06c-0.58,0.83,0.42,2.52,2.23,3.79c1.81,1.27,3.75,1.63,4.32,0.8c0.41-0.59,0.02-1.61-0.89-2.61l3.11-4.44c1.25,0.51,2.34,0.53,2.75-0.06c0.41-0.58,0.02-1.61-0.89-2.61l3.11-4.44c1.25,0.51,2.34,0.53,2.75-0.06C2024.33,19.36,2023.33,17.67,2021.52,16.4z M2013.92,28.03l-2.65,3.79c0.58,0.5,0.9,1.04,0.71,1.31c-0.22,0.31-1.04,0.11-1.85-0.46s-1.28-1.27-1.06-1.58c0.18-0.26,0.8-0.15,1.47,0.22l2.65-3.79c0.21-0.3,0.54-0.42,0.74-0.28C2014.13,27.38,2014.13,27.74,2013.92,28.03z M2017.5,26.4c-0.22,0.31-1.29-0.07-2.4-0.84c-1.11-0.77-1.83-1.65-1.61-1.96c0.22-0.31,1.29,0.07,2.4,0.84C2017,25.21,2017.72,26.09,2017.5,26.4z M2021.93,18.91c-0.18,0.26-0.8,0.15-1.47-0.22l-2.65,3.79c-0.21,0.3-0.54,0.42-0.74,0.28c-0.2-0.14-0.2-0.49,0.01-0.79l2.65-3.79c-0.58-0.5-0.9-1.04-0.71-1.3c0.22-0.31,1.04-0.11,1.85,0.46S2022.15,18.6,2021.93,18.91z"/>
 <path fill="#006C00" d="M2031.75,117.81c-0.41-0.59-1.51-0.57-2.75-0.06l-3.11-4.44c0.9-1,1.3-2.02,0.89-2.61c-0.41-0.58-1.51-0.57-2.75-0.06l-3.11-4.44c0.9-1,1.3-2.02,0.89-2.61c-0.58-0.83-2.51-0.47-4.32,0.8c-1.81,1.27-2.81,2.96-2.23,3.79c0.41,0.59,1.51,0.57,2.75,0.06l3.11,4.44c-0.9,1-1.3,2.02-0.89,2.61c0.41,0.58,1.51,0.56,2.75,0.06l3.11,4.44c-0.9,1-1.3,2.02-0.89,2.61c0.58,0.83,2.51,0.47,4.32-0.8C2031.33,120.33,2032.33,118.64,2031.75,117.81z M2021.19,110.48l-2.65-3.79c-0.67,0.38-1.29,0.49-1.47,0.22c-0.22-0.31,0.26-1.02,1.06-1.58s1.63-0.77,1.85-0.46c0.18,0.26-0.13,0.8-0.71,1.3l2.65,3.79c0.21,0.3,0.21,0.65,0.01,0.79C2021.73,110.9,2021.4,110.77,2021.19,110.48z M2021.5,114.4c-0.22-0.31,0.5-1.19,1.61-1.96c1.11-0.78,2.18-1.15,2.4-0.84c0.22,0.31-0.5,1.19-1.61,1.96C2022.79,114.34,2021.71,114.71,2021.5,114.4z M2028.87,120.67c-0.8,0.56-1.63,0.77-1.85,0.46c-0.18-0.26,0.13-0.8,0.71-1.31l-2.65-3.79c-0.21-0.3-0.21-0.65-0.01-0.79c0.2-0.14,0.53-0.02,0.74,0.28l2.65,3.79c0.67-0.38,1.29-0.49,1.47-0.22C2030.15,119.39,2029.67,120.1,2028.87,120.67z"/>
 <path fill="#006C00" d="M2021.52,104.4c-1.81-1.27-3.75-1.63-4.32-0.8c-0.41,0.59-0.02,1.61,0.89,2.61l-3.11,4.44c-1.25-0.51-2.35-0.53-2.75,0.06c-0.41,0.59-0.02,1.61,0.89,2.61l-3.11,4.44c-1.25-0.51-2.34-0.53-2.75,0.06c-0.58,0.83,0.42,2.52,2.23,3.79c1.81,1.27,3.75,1.62,4.32,0.8c0.41-0.58,0.02-1.61-0.89-2.61l3.11-4.44c1.25,0.51,2.34,0.53,2.75-0.06c0.41-0.59,0.02-1.61-0.89-2.61l3.11-4.44c1.25,0.51,2.34,0.53,2.75-0.06C2024.33,107.36,2023.33,105.67,2021.52,104.4z M2013.92,116.03l-2.65,3.79c0.58,0.5,0.9,1.04,0.71,1.31c-0.22,0.31-1.04,0.11-1.85-0.46c-0.8-0.56-1.28-1.27-1.06-1.58c0.18-0.26,0.8-0.15,1.47,0.22l2.65-3.79c0.21-0.29,0.54-0.42,0.74-0.28C2014.13,115.38,2014.13,115.74,2013.92,116.03z M2017.5,114.4c-0.22,0.31-1.29-0.07-2.4-0.84c-1.11-0.77-1.83-1.65-1.61-1.96c0.22-0.31,1.29,0.07,2.4,0.84C2017,113.21,2017.72,114.09,2017.5,114.4z M2021.93,106.91c-0.18,0.26-0.8,0.15-1.47-0.22l-2.65,3.79c-0.21,0.3-0.54,0.42-0.74,0.28c-0.2-0.14-0.2-0.49,0.01-0.79l2.65-3.79c-0.58-0.5-0.9-1.04-0.71-1.3c0.22-0.31,1.04-0.11,1.85,0.46C2021.67,105.9,2022.15,106.61,2021.93,106.91z"/>
 <path fill="#006C00" d="M2023.75,148.81c-0.41-0.59-1.51-0.57-2.75-0.06l-3.11-4.44c0.9-1,1.3-2.02,0.89-2.61c-0.41-0.59-1.51-0.57-2.75-0.06l-3.11-4.44c0.9-1,1.3-2.02,0.89-2.61c-0.58-0.83-2.51-0.47-4.32,0.8s-2.81,2.96-2.23,3.79c0.41,0.59,1.51,0.57,2.75,0.06l3.11,4.44c-0.9,1-1.3,2.02-0.89,2.61c0.41,0.58,1.51,0.56,2.75,0.06l3.11,4.44c-0.9,1-1.3,2.02-0.89,2.61c0.58,0.83,2.51,0.47,4.32-0.8C2023.33,151.33,2024.33,149.64,2023.75,148.81z M2013.19,141.48l-2.65-3.79c-0.67,0.38-1.29,0.49-1.47,0.22c-0.22-0.31,0.26-1.02,1.06-1.58s1.63-0.77,1.85-0.46c0.18,0.26-0.13,0.8-0.71,1.3l2.65,3.79c0.21,0.29,0.21,0.65,0.01,0.79C2013.73,141.9,2013.4,141.77,2013.19,141.48z M2013.5,145.4c-0.22-0.31,0.5-1.19,1.61-1.96c1.11-0.78,2.18-1.15,2.4-0.84c0.22,0.31-0.5,1.19-1.61,1.96S2013.71,145.71,2013.5,145.4zM2020.87,151.67c-0.8,0.56-1.63,0.77-1.85,0.46c-0.18-0.26,0.13-0.8,0.71-1.3l-2.65-3.79c-0.21-0.3-0.21-0.65-0.01-0.79c0.2-0.14,0.53-0.02,0.74,0.28l2.65,3.79c0.67-0.38,1.29-0.49,1.47-0.22C2022.15,150.4,2021.67,151.1,2020.87,151.67z"/>
 <path fill="#006C00" d="M2029.52,135.4c-1.81-1.27-3.75-1.63-4.32-0.8c-0.41,0.59-0.02,1.61,0.89,2.61l-3.11,4.44c-1.25-0.51-2.34-0.53-2.75,0.06c-0.41,0.59-0.02,1.61,0.89,2.61l-3.11,4.44c-1.25-0.51-2.34-0.53-2.75,0.06c-0.58,0.83,0.42,2.52,2.23,3.79c1.81,1.27,3.75,1.62,4.32,0.8c0.41-0.58,0.02-1.61-0.89-2.61l3.11-4.44c1.25,0.51,2.35,0.53,2.75-0.06c0.41-0.58,0.02-1.61-0.89-2.61l3.11-4.44c1.25,0.51,2.34,0.53,2.75-0.06C2032.33,138.36,2031.33,136.67,2029.52,135.4z M2021.92,147.03l-2.65,3.79c0.58,0.5,0.9,1.04,0.71,1.3c-0.22,0.31-1.04,0.11-1.85-0.46c-0.8-0.56-1.28-1.27-1.06-1.58c0.18-0.26,0.8-0.15,1.47,0.22l2.65-3.79c0.21-0.3,0.54-0.42,0.74-0.28C2022.13,146.39,2022.13,146.74,2021.92,147.03z M2025.5,145.4c-0.22,0.31-1.29-0.07-2.4-0.84c-1.11-0.77-1.83-1.65-1.61-1.96c0.22-0.31,1.29,0.07,2.4,0.84C2025,144.21,2025.72,145.09,2025.5,145.4z M2029.93,137.92c-0.18,0.26-0.8,0.15-1.47-0.22l-2.65,3.79c-0.21,0.29-0.54,0.42-0.74,0.28c-0.2-0.14-0.2-0.49,0.01-0.79l2.65-3.79c-0.58-0.5-0.9-1.04-0.71-1.3c0.22-0.31,1.04-0.11,1.85,0.46C2029.67,136.9,2030.15,137.61,2029.93,137.92z"/>
 <path fill="#006C00" d="M2023.75,60.81c-0.41-0.59-1.51-0.57-2.75-0.06l-3.11-4.44c0.9-1,1.3-2.02,0.89-2.61c-0.41-0.59-1.51-0.56-2.75-0.06l-3.11-4.44c0.9-1,1.3-2.02,0.89-2.61c-0.58-0.83-2.51-0.47-4.32,0.8c-1.81,1.27-2.81,2.96-2.23,3.79c0.41,0.59,1.51,0.57,2.75,0.06l3.11,4.44c-0.9,1-1.3,2.02-0.89,2.61c0.41,0.58,1.51,0.56,2.75,0.06l3.11,4.44c-0.9,1-1.3,2.02-0.89,2.61c0.58,0.83,2.51,0.47,4.32-0.8C2023.33,63.33,2024.33,61.64,2023.75,60.81z M2013.19,53.48l-2.65-3.79c-0.67,0.38-1.29,0.49-1.47,0.22 c-0.22-0.31,0.26-1.02,1.06-1.58s1.63-0.77,1.85-0.46c0.18,0.26-0.13,0.8-0.71,1.3l2.65,3.79c0.21,0.29,0.21,0.65,0.01,0.79C2013.73,53.9,2013.4,53.77,2013.19,53.48z M2013.5,57.4c-0.22-0.31,0.5-1.19,1.61-1.96c1.11-0.78,2.18-1.15,2.4-0.84c0.22,0.31-0.5,1.19-1.61,1.96C2014.79,57.34,2013.71,57.71,2013.5,57.4z M2020.87,63.67c-0.8,0.56-1.63,0.77-1.85,0.46c-0.18-0.26,0.13-0.8,0.71-1.3l-2.65-3.79c-0.21-0.3-0.21-0.65-0.01-0.79c0.2-0.14,0.53-0.02,0.74,0.28l2.65,3.79c0.67-0.38,1.29-0.49,1.47-0.22C2022.15,62.4,2021.67,63.1,2020.87,63.67z"/>
 <path fill="#006C00" d="M2029.52,47.4c-1.81-1.27-3.75-1.63-4.32-0.8c-0.41,0.59-0.02,1.61,0.89,2.61l-3.11,4.44c-1.25-0.51-2.34-0.53-2.75,0.06c-0.41,0.59-0.02,1.61,0.89,2.61l-3.11,4.44c-1.25-0.51-2.34-0.53-2.75,0.06c-0.58,0.83,0.42,2.52,2.23,3.79c1.81,1.27,3.75,1.62,4.32,0.8c0.41-0.58,0.02-1.61-0.89-2.61l3.11-4.44c1.25,0.51,2.35,0.53,2.75-0.06c0.41-0.59,0.02-1.61-0.89-2.61l3.11-4.44c1.25,0.51,2.34,0.53,2.75-0.06C2032.33,50.36,2031.33,48.67,2029.52,47.4z M2021.92,59.03l-2.65,3.79c0.58,0.5,0.9,1.04,0.71,1.3c-0.22,0.31-1.04,0.11-1.85-0.46c-0.8-0.56-1.28-1.27-1.06-1.58c0.18-0.26,0.8-0.15,1.47,0.22l2.65-3.79c0.21-0.3,0.54-0.42,0.74-0.28C2022.13,58.39,2022.13,58.74,2021.92,59.03z M2025.5,57.4c-0.22,0.31-1.29-0.07-2.4-0.84c-1.11-0.77-1.83-1.65-1.61-1.96c0.22-0.31,1.29,0.07,2.4,0.84C2025,56.21,2025.72,57.09,2025.5,57.4z M2029.93,49.92c-0.18,0.26-0.8,0.15-1.47-0.22l-2.65,3.79c-0.21,0.29-0.54,0.42-0.74,0.28c-0.2-0.14-0.2-0.49,0.01-0.79l2.65-3.79c-0.58-0.5-0.9-1.04-0.71-1.3c0.22-0.31,1.04-0.11,1.85,0.46C2029.67,48.9,2030.15,49.61,2029.93,49.92z"/>
 <path fill="#20208C" d="M1171.2,12.1l6.8,19.4l0.3-0.1c3.6-1.2,13.3-4.1,15.3-2.6c0.2,0.2,0.3,0.4,0.3,0.7l-0.1,0.8l0.6-0.5c6.8-5.3,9.4-14,9.4-14.1l0-0.2l-0.1-0.1c-4.9-7.3-24.9-1.3-25.7-1l-0.2,0.1l0,0.2c0,0-0.2,1.7-0.2,2.4c-0.4-1.5-1.1-4.1-1.1-4.1l-5.6-1.3L1171.2,12.1z M1178.1,17.8c1.2-0.3,2.6-0.7,4-1c0,0,0,0,0,0s1.9,9.3,2,9.9c-0.5,0.1-3,0.8-3.6,1c-0.1-0.4-1.4-5.6-2.5-9.9C1178,17.9,1178.1,17.8,1178.1,17.8z M1189.8,15.5c0,0.1-0.4,9.6-0.4,10.2c-0.4,0.1-2.1,0.4-2.6,0.5c-0.1-0.6-1.8-9.6-1.8-9.9C1186.7,15.9,1188.3,15.7,1189.8,15.5z M1197.7,16.4c-0.2,2.3-1.1,8.1-2.6,9.9c-0.1-0.1,0-0.2-0.1-0.3c-0.5-0.5-1.6-0.7-3.3-0.6c0.3-4.5,1-7.5,1.9-7.9l0.7-0.3c0,0-3.5-1.7-3.8-1.8C1194.3,15,1197.3,15.1,1197.7,16.4z"/>
 <path fill="#20208C" d="M1003.8,18.1c-0.3,0.2-0.4,0.5-0.4,0.8c0,0.3,0.1,0.5,0.1,0.7c-2.6,0.2-19.7,1.8-23.9,1.4l-0.4,0l1.7,6l0.3-0.1c3.3-1.1,24.1-2.4,29-1.4c0.8,0.1,1.2,0,1.4-0.4c0.5-1-1.9-3.5-3.4-4.8C1007.3,19.4,1004.8,17.5,1003.8,18.1z"/>
 <path fill="#20208C" d="M1067.9,23.9c-0.3,0.2-0.4,0.5-0.4,0.9c0,0.2,0,0.5,0.1,0.7c-2.8,0.3-19.9,1.9-24.1,1.4l-0.5-0.1l1.7,6.2l0.4-0.1c3.3-1.2,24.3-2.4,29.3-1.4c0.8,0.2,1.3,0,1.5-0.4c0.7-1.3-3-4.6-3.4-4.9C1071.5,25.2,1069,23.2,1067.9,23.9z"/>
 <path fill="#20208C" d="M1060.1,12.9c-2.6,0.9-6.2,2.2-12.3,2.2l-0.7,0l2.9,4.2l16.7-2.2l0.5-3.1l-0.1-0.1C1064.7,11.2,1063,11.8,1060.1,12.9z"/>
 <path fill="#20208C" d="M1131.7,26.3c-0.3,0.2-0.4,0.5-0.4,0.9c0,0.3,0,0.5,0.1,0.7c-2.7,0.3-19.3,1.9-23.4,1.4l-0.5-0.1l1.7,6.2l0.3-0.1c3.2-1.2,23.6-2.4,28.4-1.4c0.8,0.2,1.3,0,1.5-0.4c0.6-1.3-2.9-4.6-3.3-5C1135.1,27.7,1132.7,25.6,1131.7,26.3z"/>
 <polygon fill="#20208C" points="1125.3,19 1114,20.4 1115.6,24.7 1127.6,23.3 1125.6,19 "/>
 <path fill="#20208C" d="M1122.9,8.6c-3,1.1-7,2.6-14,2.6l-0.6,0l3.2,4.9l18.9-2.6l0.6-3.6l-0.1-0.1C1128.2,6.6,1126.3,7.3,1122.9,8.6z"/>
 <path fill="#20208C" d="M1245.8,10.3l-10.3,10.5l0.4,0.5c0,0,5.6-3.2,7-4c-0.6,1.5-4.3,11.6-4.3,11.6l3.3,3.5c0,0,2.4-15.6,2.4-15.9c0.3-0.2,5.1-2.9,5.1-2.9l-3.4-3.7L1245.8,10.3z"/>
 <path fill="#20208C" d="M1258.6,10.2h-1.9c0,0-0.6,1.3-0.9,1.9c0,0-0.1-0.1-0.1-0.1l-5.9,3.5l0.2,0.7c0,0,3-0.2,3.9-0.2c-0.4,0.8-2.2,4.5-2.3,4.8c-0.4,0-6.3,0.5-6.3,0.5l-0.1,0.7l4,1.6c0,0,0.7-0.3,1.3-0.5c-0.6,1.2-2.5,5.2-2.7,5.5c-1.3,0.1-2.3,0.1-2.9,0l-0.4,0l0.5,3.7l0.3-0.1c1.4-0.2,12.2-1.6,14.1-1.7c1.8-0.1,7.3,2.1,7.4,2.1l0.7,0.3l-0.2-0.7c-0.1-0.4-1.3-3.9-2.2-4.8l-0.1-0.1l-0.1,0c-0.8-0.2-3.6,0-7.5,0.4c0.9-1,4.3-4.6,4.3-4.6l-3.2-3.4c0,0-2.9,7.8-3,8.2c-0.3,0-2.7,0.3-3.5,0.3c0.4-0.9,2.5-6.5,2.6-6.7c0.3-0.1,3.2-1.2,3.2-1.2l-0.2-0.7c0,0-1.7,0.3-2.5,0.4c0.3-0.9,1.6-4.1,1.7-4.4c0.2,0,1.2-0.1,1.2-0.1s-0.6-0.9-0.7-1.1c0.1-0.3,1.7-4.4,1.7-4.4H1258.6z"/>
 <path fill="#20208C" d="M1313.2,9.8c0,0.3,0,0.6,0,1c0,1.6-0.2,3.7-0.7,6.2c-5.9,0.7-11.1,1.5-11.2,1.5l-0.3,0V21c0,0,9.9-0.4,10.7-0.5c-0.2,0.7-1,4-1,4l0.6,0.3c0,0,2.9-4.1,3.1-4.4c11.7-0.3,14.4,0.2,15,0.5l0.6,0.4l-0.6-3.5c-0.3-1-2-2.1-12.2-1.3c0.6-0.9,3.2-4.6,3.2-4.6l-7.2-2.7L1313.2,9.8z"/>
 <path fill="#20208C" d="M1307.6,24.8c0,0,0.8,4.7-1.6,8.5l0.5,0.5c4.4-2.9,5.9-6.6,5.9-6.7l0.1-0.3l-5-2.6L1307.6,24.8z"/>
 <path fill="#20208C" d="M1317.1,23.7c0.2,0.3,5.9,7.7,7.9,9.6l0.1,0.1l0.2,0c0.4,0,0.8-0.3,1.1-0.7c0.8-1.1,1.3-3.2,1-4.3c-0.4-1.3-7.6-4.3-9.8-5.2l-1.2-0.5L1317.1,23.7z"/>
 <path fill="#20208C" d="M1387.2,11.7L1387.2,11.7c-0.2,0.4-1.5,1.9-8.3,7.6c-0.1-0.7-0.2-1.6-0.2-1.6c-0.2-1.9-0.4-4.1-0.8-6.5l-0.1-0.3l-3.2,0.3l0,0.3c0,0.6,0,1.1,0,1.7c0,3.3,0.3,6.2,0.9,8.9c-0.3,0.2-10,8.2-10,8.2l0.3,0.3l1.9,1.8c0,0,7.9-6.9,8.6-7.6c0.7,2.2,1.6,4,2.7,5c2,2,4.2,1.7,7,1.3c2-0.3,4.3-0.6,7-0.2l0.5,0.1l-0.6-2.8c0-0.6-0.3-1.1-0.7-1.5c-1.3-0.9-3.8-0.4-6.5,0.1c-1.3,0.3-2.7,0.5-3.9,0.6c-1.3-1.2-2.1-2.8-2.6-5.2c7.5-6.2,10.3-7.8,11.3-8.1l0.2-0.1l0-0.3c0-0.2,0-0.3,0-0.4c0-1.8-0.9-2.8-1.7-3C1388.5,10.4,1387.7,10.6,1387.2,11.7z"/>
 <path fill="#20208C" d="M1432.4,19c0,3.7-4.5,9.2-4.7,9.4l-0.7,0.9l1.1-0.3c5.2-1.4,8.2-5,8.3-5.1l0.2-0.2l-4.2-5.7V19z"/>
 <path fill="#20208C" d="M1437.9,11.3l-2,0.3l0.3,0.5c0.1,0.2,9.3,15.7,10.6,19.3l0.1,0.3l0.3-0.1c2.2-0.4,4-0.2,5.8,0c2.2,0.2,4.3,0.4,6.7-0.4l0.4-0.1l-0.2-0.4c-1.2-2-2.5-2.4-4.2-2.9c-3.2-0.9-8-2.3-17.3-16.3l-0.1-0.2L1437.9,11.3z"/>
 <path fill="#20208C" d="M1520.6,23.6c0,0-2.9,3.2-3.1,3.4c-3.2,0.7-8.4,1.2-8.8-0.4c-0.5-1.9,3.4-10.4,4.9-13.6l0.2-0.3l-5.6-2.8l-0.1,0.4c-0.1,0.2-0.4,1.3-0.9,3c-2,0-4.2,0-4.5,0c0-0.4-0.1-1.3-0.1-1.3l0,0c-1.4-2.3-7.4-0.7-8.1-0.6l-0.4,0.1l0.2,0.4c0.2,0.4,0.4,0.9,0.5,1.4c-0.8,0-3.8,0-3.8,0l1.9,3.6c0,0,1.8-0.3,2.4-0.4c0,0.2,0,0.5,0,0.7c0,6.2-2.7,14.1-2.7,14.2l0.6,0.3c0.3-0.4,7.9-9.5,9.3-16.4c0.2,0,2.4-0.4,4.4-0.7c-1.2,4.7-2.6,12.1-0.3,14.8c3.4,4,16.6,3.7,17.1,3.5l0.3-0.1L1520.6,23.6z"/>
 <path fill="#20208C" d="M1171.2,100.1l6.8,19.4l0.3-0.1c3.6-1.2,13.3-4.1,15.3-2.6c0.2,0.2,0.3,0.4,0.3,0.7l-0.1,0.8l0.6-0.5c6.8-5.3,9.4-14,9.4-14.1l0-0.2l-0.1-0.1c-4.9-7.3-24.9-1.3-25.7-1l-0.2,0.1l0,0.2c0,0-0.2,1.7-0.2,2.4c-0.4-1.5-1.1-4.1-1.1-4.1l-5.6-1.3L1171.2,100.1z M1178.1,105.8c1.2-0.3,2.6-0.7,4-1c0,0,0,0,0,0s1.9,9.3,2,9.9c-0.5,0.1-3,0.8-3.6,1c-0.1-0.4-1.4-5.6-2.5-9.9C1178,105.9,1178.1,105.8,1178.1,105.8z M1189.8,103.5c0,0.1-0.4,9.6-0.4,10.2c-0.4,0.1-2.1,0.4-2.6,0.5c-0.1-0.6-1.8-9.6-1.8-9.9C1186.7,103.9,1188.3,103.7,1189.8,103.5z M1197.7,104.4c-0.2,2.3-1.1,8.1-2.6,9.9c-0.1-0.1,0-0.2-0.1-0.3c-0.5-0.5-1.6-0.7-3.3-0.6c0.3-4.5,1-7.5,1.9-7.9l0.7-0.3c0,0-3.5-1.7-3.8-1.8C1194.3,103,1197.3,103.1,1197.7,104.4z"/>
 <path fill="#20208C" d="M1003.8,106.1c-0.3,0.2-0.4,0.5-0.4,0.8c0,0.3,0.1,0.5,0.1,0.7c-2.6,0.2-19.7,1.8-23.9,1.4l-0.4,0l1.7,6l0.3-0.1c3.3-1.1,24.1-2.4,29-1.4c0.8,0.1,1.2,0,1.4-0.4c0.5-1-1.9-3.5-3.4-4.8C1007.3,107.4,1004.8,105.5,1003.8,106.1z"/>
 <path fill="#20208C" d="M1067.9,111.9c-0.3,0.2-0.4,0.5-0.4,0.9c0,0.2,0,0.5,0.1,0.7c-2.8,0.3-19.9,1.9-24.1,1.4l-0.5-0.1l1.7,6.2l0.4-0.1c3.3-1.2,24.3-2.4,29.3-1.4c0.8,0.2,1.3,0,1.5-0.4c0.7-1.3-3-4.6-3.4-4.9C1071.5,113.2,1069,111.2,1067.9,111.9z"/>
 <path fill="#20208C" d="M1060.1,100.9c-2.6,0.9-6.2,2.2-12.3,2.2l-0.7,0l2.9,4.2l16.7-2.2l0.5-3.1l-0.1-0.1C1064.7,99.2,1063,99.8,1060.1,100.9z"/>
 <path fill="#20208C" d="M1131.7,114.3c-0.3,0.2-0.4,0.5-0.4,0.9c0,0.3,0,0.5,0.1,0.7c-2.7,0.3-19.3,1.9-23.4,1.4l-0.5-0.1l1.7,6.2l0.3-0.1c3.2-1.2,23.6-2.4,28.4-1.4c0.8,0.2,1.3,0,1.5-0.4c0.6-1.3-2.9-4.6-3.3-5C1135.1,115.7,1132.7,113.6,1131.7,114.3z"/>
 <polygon fill="#20208C" points="1125.3,107 1114,108.4 1115.6,112.7 1127.6,111.3 1125.6,107 "/>
 <path fill="#20208C" d="M1122.9,96.6c-3,1.1-7,2.6-14,2.6l-0.6,0l3.2,4.9l18.9-2.6l0.6-3.6l-0.1-0.1C1128.2,94.6,1126.3,95.3,1122.9,96.6z"/>
 <path fill="#20208C" d="M1245.8,98.3l-10.3,10.5l0.4,0.5c0,0,5.6-3.2,7-4c-0.6,1.5-4.3,11.6-4.3,11.6l3.3,3.5c0,0,2.4-15.6,2.4-15.9c0.3-0.2,5.1-2.9,5.1-2.9l-3.4-3.7L1245.8,98.3z"/>
 <path fill="#20208C" d="M1258.6,98.2h-1.9c0,0-0.6,1.3-0.9,1.9c0,0-0.1-0.1-0.1-0.1l-5.9,3.5l0.2,0.7c0,0,3-0.2,3.9-0.2c-0.4,0.8-2.2,4.5-2.3,4.8c-0.4,0-6.3,0.5-6.3,0.5l-0.1,0.7l4,1.6c0,0,0.7-0.3,1.3-0.5c-0.6,1.2-2.5,5.2-2.7,5.5c-1.3,0.1-2.3,0.1-2.9,0l-0.4,0l0.5,3.7l0.3-0.1c1.4-0.2,12.2-1.6,14.1-1.7c1.8-0.1,7.3,2.1,7.4,2.1l0.7,0.3l-0.2-0.7c-0.1-0.4-1.3-3.9-2.2-4.8l-0.1-0.1l-0.1,0c-0.8-0.2-3.6,0-7.5,0.4c0.9-1,4.3-4.6,4.3-4.6l-3.2-3.4c0,0-2.9,7.8-3,8.2c-0.3,0-2.7,0.3-3.5,0.3c0.4-0.9,2.5-6.5,2.6-6.7c0.3-0.1,3.2-1.2,3.2-1.2l-0.2-0.7c0,0-1.7,0.3-2.5,0.4c0.3-0.9,1.6-4.1,1.7-4.4c0.2,0,1.2-0.1,1.2-0.1s-0.6-0.9-0.7-1.1c0.1-0.3,1.7-4.4,1.7-4.4H1258.6z"/>
 <path fill="#20208C" d="M1313.2,97.8c0,0.3,0,0.6,0,1c0,1.6-0.2,3.7-0.7,6.2c-5.9,0.7-11.1,1.5-11.2,1.5l-0.3,0v2.5c0,0,9.9-0.4,10.7-0.5c-0.2,0.7-1,4-1,4l0.6,0.3c0,0,2.9-4.1,3.1-4.4c11.7-0.3,14.4,0.2,15,0.5l0.6,0.4l-0.6-3.5c-0.3-1-2-2.1-12.2-1.3c0.6-0.9,3.2-4.6,3.2-4.6l-7.2-2.7L1313.2,97.8z"/>
 <path fill="#20208C" d="M1307.6,112.8c0,0,0.8,4.7-1.6,8.5l0.5,0.5c4.4-2.9,5.9-6.6,5.9-6.7l0.1-0.3l-5-2.6L1307.6,112.8z"/>
 <path fill="#20208C" d="M1317.1,111.7c0.2,0.3,5.9,7.7,7.9,9.6l0.1,0.1l0.2,0c0.4,0,0.8-0.3,1.1-0.7c0.8-1.1,1.3-3.2,1-4.3c-0.4-1.3-7.6-4.3-9.8-5.2l-1.2-0.5L1317.1,111.7z"/>
 <path fill="#20208C" d="M1387.2,99.7L1387.2,99.7c-0.2,0.4-1.5,1.9-8.3,7.6c-0.1-0.7-0.2-1.6-0.2-1.6c-0.2-1.9-0.4-4.1-0.8-6.5l-0.1-0.3l-3.2,0.3l0,0.3c0,0.6,0,1.1,0,1.7c0,3.3,0.3,6.2,0.9,8.9c-0.3,0.2-10,8.2-10,8.2l0.3,0.3l1.9,1.8c0,0,7.9-6.9,8.6-7.6c0.7,2.2,1.6,4,2.7,5c2,2,4.2,1.7,7,1.3c2-0.3,4.3-0.6,7-0.2l0.5,0.1l-0.6-2.8c0-0.6-0.3-1.1-0.7-1.5c-1.3-0.9-3.8-0.4-6.5,0.1c-1.3,0.3-2.7,0.5-3.9,0.6c-1.3-1.2-2.1-2.8-2.6-5.2c7.5-6.2,10.3-7.8,11.3-8.1l0.2-0.1l0-0.3c0-0.2,0-0.3,0-0.4c0-1.8-0.9-2.8-1.7-3C1388.5,98.4,1387.7,98.6,1387.2,99.7z"/>
 <path fill="#20208C" d="M1432.4,107c0,3.7-4.5,9.2-4.7,9.4l-0.7,0.9l1.1-0.3c5.2-1.4,8.2-5,8.3-5.1l0.2-0.2l-4.2-5.7V107z"/>
 <path fill="#20208C" d="M1437.9,99.3l-2,0.3l0.3,0.5c0.1,0.2,9.3,15.7,10.6,19.3l0.1,0.3l0.3-0.1c2.2-0.4,4-0.2,5.8,0c2.2,0.2,4.3,0.4,6.7-0.4l0.4-0.1l-0.2-0.4c-1.2-2-2.5-2.4-4.2-2.9c-3.2-0.9-8-2.3-17.3-16.3l-0.1-0.2L1437.9,99.3z"/>
 <path fill="#20208C" d="M1520.6,111.6c0,0-2.9,3.2-3.1,3.4c-3.2,0.7-8.4,1.2-8.8-0.4c-0.5-1.9,3.4-10.4,4.9-13.6l0.2-0.3l-5.6-2.8l-0.1,0.4c-0.1,0.2-0.4,1.3-0.9,3c-2,0-4.2,0-4.5,0c0-0.4-0.1-1.3-0.1-1.3l0,0c-1.4-2.3-7.4-0.7-8.1-0.6l-0.4,0.1l0.2,0.4c0.2,0.4,0.4,0.9,0.5,1.4c-0.8,0-3.8,0-3.8,0l1.9,3.6c0,0,1.8-0.3,2.4-0.4c0,0.2,0,0.5,0,0.7c0,6.2-2.7,14.1-2.7,14.2l0.6,0.3c0.3-0.4,7.9-9.5,9.3-16.4c0.2,0,2.4-0.4,4.4-0.7c-1.2,4.7-2.6,12.1-0.3,14.8c3.4,4,16.6,3.7,17.1,3.5l0.3-0.1L1520.6,111.6z"/>
 <path fill="#101040" d="M632.3,142.7c-2-0.9-11.8,3.3-11.8,3.3l0.5-20.7c0,0,5.3-4.3,9.6-1.7l-1.2-5c-1.4-0.2-8.4,5.5-8.4,5.5s-0.6-18.8,4.8-19.9c0,0-8.9-2.6-9.7-2.2c-0.4,0.2-0.4,13.8-0.2,27.1c-3.2,3.1-5.9,6.2-7.1,7.3l0.4-28.5c0,0-4.7-2.6-5.8-1.4l0.2,14.8c-0.3-0.5-0.7-0.9-1-1.3c-1-1.3-6.1-4.2-6.1-4.2s1.7,5.6,2.5,6.6c0.7,0.9,3,2.9,4.6,2.2l0.2,16.5c-3.4,3-7.9,6.8-8.5,5.4c-1.5-3.2-4.7-3-5.2-1.5c-0.5,1.6,4.2,10.2,5.8,10.1c0.8-0.1,4.4-4.9,8-10l0.1,5.3c1.6,2.1,3.8,0.5,4.6-0.7l0.3-11c1.1-1.6,4-4.5,7.1-7.9c0.2,12.1,0.3,22.8,0.3,22.8c4.9-5.2,16.7-4,16.7-4L632.3,142.7z"/>
 <path fill="#101040" d="M688.4,14.3c-8.5,5.7-21.5,6.9-28.8,5.9l-0.9,2c11.7,3.8,26.4,1,31.2-3.2L688.4,14.3z"/>
 <path fill="#101040" d="M692.5,39.2c-3.6-0.9-7.3-1.4-10.8-1.7c0.8-2.9,1.2-6,1-9.2l-7.8,2c0.6,1.7,0.6,4.3,0.2,7c-1.6,0-3.1,0.1-4.5,0.3c0.2-2.7,0.4-3.3-0.5-6l-4.7,1.3c1,1.8,1.5,2.3,1.8,5.1c-3.4,1-5.7,1.8-6.9,3.2c-5.1,6.1,0,23.2,0,23.2s-0.2-15.4,2-17c2.2-1.6,4.7-1.8,4.7-1.8c0.1,1.5-1.6,6.7-1.6,6.7c2.2-2.7,3.2-3.6,4.3-7.2c1.6-0.5,2.5-0.8,4.1-1c-1.6,6.1-4.5,10.9-4.5,10.9l7.4,2c-4.1-0.1-13.3,5.1-13.3,5.1s16.2-4,20.8-1.1l1.2-2.9c-3.4-2.7-10.5-4.9-10.5-4.9s2.2-4.1,4.6-9.4c2.3,0.1,5.6,0.3,7.7,0.9c9.2,4.1-1.7,22.4-1.7,22.4S705.7,45.9,692.5,39.2z"/>
 <path fill="#101040" d="M735.3,14.2c0.4,0.5,0.9,2.3,0.9,8.6c0,0.9,0,1.8,0,2.8c-3.4,0.5-6.3,1-6.8,1.2l-0.6,0.2l2.8,2.7l0.2-0.1c1.1-0.3,2.6-0.5,4.2-0.7c0,0.7-0.4,7.3-0.4,7.9c-4.9,0.4-9.2,1.1-12.7,1.9c-3,0.8-4.8,2.6-5.2,5.4c-0.1,0.4-0.1,0.9-0.1,1.4c0,7.1,6.9,16.9,7,16.9l0.8,0.5l-0.3-0.9c0-0.1-2.8-9.4-2.8-15.6c0-1.8,0.2-3.3,0.8-4.3c0.4-0.6,0.8-0.9,1.4-1c1.3-0.2,2.7-0.4,4-0.6c0,0,3.1,4,3.7,4.7c-0.5,0.1-1.4,0.3-1.4,0.3l0,0.3l0.2,2.2l0.4-0.1c0.6-0.2,1.8-0.5,3.2-0.7c0,0.6,0.1,2.4,0.2,2.9c-1.7,0.5-3.2,1.1-3.8,1.4l-0.4,0.2l1.5,1.6l0.2-0.1c0.7-0.3,1.7-0.6,2.7-0.9c0,0.7,0.3,5.6,0.3,5.6l0.7,0c0,0,1.1-5.5,1.2-6c1.8-0.2,3.5-0.1,4.8,0.2l0.4,0.1v-3l-0.2-0.1c-0.8-0.4-2.3-0.4-4.5,0.1c0.1-0.7,0.4-2.1,0.5-2.5c1.6-0.1,2.9-0.2,3.8-0.1l0.5,0.1l-0.7-2.6c0,0-0.9,0-1.4,0.1c0.8-0.9,3.5-4.4,3.7-4.6c0.3,0,3.9,0.1,3.9,0.1c1.6,0.1,3,0.7,4.1,2c1.3,1.5,2,3.9,2,6.3c0,0.5,0,1.1-0.1,1.6l-0.1,0.7c-0.7,5.1-1.3,8.8-3.1,9.6c-1.2,0.5-3.1-0.3-5.9-2.4l-0.5,0.5l5.5,9.6l0.3-0.1c6.7-2.4,7.7-3.8,10.4-15.4c1.2-5.1,0.8-9.1-1.3-11.8c-2.5-3.3-6.3-3.7-6.5-3.7c-0.1,0-6.7-0.3-14.6,0.2c0.2-0.8,2-7.5,2.1-7.9c2.5,0,4.7,0.1,5.7,0.5l0.4,0.1l0.4-4.7l-0.4,0c-1.1,0-2.8,0.1-5.1,0.3c1.3-4.4,1.9-5.8,2.1-6.2l0.2-0.3l-8.1-4.7L735.3,14.2z M739.7,39.5c-0.1,0.7-0.7,4.3-0.7,4.7c0,0-0.1,0-0.1,0c0-0.1,0.1-0.4,0.1-0.4l-4.4,0.4c0,0,0,0.5,0,0.6c-0.4,0.1-1,0.2-1.4,0.2c0-0.7,0-5,0-5.1C735.4,39.8,737.5,39.6,739.7,39.5z"/>
 <path fill="#101040" d="M804.5,41.3l0.1-6.4l4.4-0.3l-0.3-2.4l-4.1,1.2l0-5.7c2.4,0.3,5,0.8,7.1,0.9c4.3,0.3-1.2,14.1-1.2,14.1s16.3-14.4,2.6-18.1c-1.4,0-4.9,0.2-8.4,0.4l0-3.9l7.5-1.9l-7.5-0.1l0-4l-4.6-3.4l0.5,8.7l-4,2.7l4.1-1l0.2,3.2c-1.8,0.2-3.4,0.3-4.3,0.5c-11.5,2.2,1,17.2,1,17.2s-4-14,0.5-15.3c0.9-0.3,1.8-0.3,2.9-0.3l0.4,7l-3,0.9l3-0.2l0.2,4.1c-9.2,12.1-19.7,16.6-19.7,16.6s10.2-1.1,20-11.9l1,18.7c-3.7-1.5-7-3.6-7-3.6s2.4,7.1,7.5,10.1l4.3-5.1c-1-0.2-2.1-0.5-3.2-0.9l0.2-18.9c2.7,3.2,9,10.5,11.7,11l9-3C821.9,51.6,807.7,43.3,804.5,41.3z"/>
 <path fill="#101040" d="M688.4,102.3c-8.5,5.7-21.5,6.9-28.8,5.9l-0.9,2c11.7,3.8,26.4,1,31.2-3.2L688.4,102.3z"/>
 <path fill="#101040" d="M692.5,127.2c-3.6-0.9-7.3-1.4-10.8-1.7c0.8-2.9,1.2-6,1-9.2l-7.8,2c0.6,1.7,0.6,4.3,0.2,7c-1.6,0-3.1,0.1-4.5,0.3c0.2-2.7,0.4-3.3-0.5-6l-4.7,1.3c1,1.8,1.5,2.3,1.8,5.1c-3.4,1-5.7,1.8-6.9,3.2c-5.1,6.1,0,23.2,0,23.2s-0.2-15.4,2-17c2.2-1.6,4.7-1.8,4.7-1.8c0.1,1.5-1.6,6.7-1.6,6.7c2.2-2.7,3.2-3.6,4.3-7.2c1.6-0.5,2.5-0.8,4.1-1c-1.6,6.1-4.5,10.9-4.5,10.9l7.4,2c-4.1-0.1-13.3,5.1-13.3,5.1s16.2-4,20.8-1.1l1.2-2.9c-3.4-2.7-10.5-4.9-10.5-4.9s2.2-4.1,4.6-9.4c2.3,0.1,5.6,0.3,7.7,0.9c9.2,4.1-1.7,22.4-1.7,22.4S705.7,133.9,692.5,127.2z"/>
 <path fill="#101040" d="M735.3,102.2c0.4,0.5,0.9,2.3,0.9,8.6c0,0.8,0,1.8,0,2.8c-3.4,0.5-6.3,1-6.8,1.2l-0.6,0.2l2.8,2.7l0.2-0.1c1.1-0.3,2.6-0.5,4.2-0.7c0,0.7-0.4,7.3-0.4,7.9c-4.9,0.4-9.2,1.1-12.7,1.9c-3,0.8-4.8,2.6-5.2,5.4c-0.1,0.4-0.1,0.9-0.1,1.4c0,7.1,6.9,16.9,7,16.9l0.8,0.5l-0.3-0.9c0-0.1-2.8-9.4-2.8-15.6c0-1.8,0.2-3.3,0.8-4.3c0.4-0.6,0.8-0.9,1.4-1c1.3-0.2,2.7-0.4,4-0.6c0,0,3.1,4,3.7,4.7c-0.5,0.1-1.4,0.3-1.4,0.3l0,0.3l0.2,2.2l0.4-0.1c0.6-0.2,1.8-0.5,3.2-0.7c0,0.6,0.1,2.4,0.2,2.9c-1.7,0.5-3.2,1.1-3.8,1.4l-0.4,0.2l1.5,1.6l0.2-0.1c0.7-0.3,1.7-0.6,2.7-0.9c0,0.7,0.3,5.6,0.3,5.6l0.7,0c0,0,1.1-5.5,1.2-6c1.8-0.2,3.5-0.1,4.8,0.2l0.4,0.1v-3l-0.2-0.1c-0.8-0.4-2.3-0.4-4.5,0.1c0.1-0.7,0.4-2.1,0.5-2.5c1.6-0.1,2.9-0.2,3.8-0.1l0.5,0.1l-0.7-2.6c0,0-0.9,0-1.4,0.1c0.8-0.9,3.5-4.4,3.7-4.6c0.3,0,3.9,0.1,3.9,0.1c1.6,0.1,3,0.7,4.1,2c1.3,1.5,2,3.9,2,6.3c0,0.5,0,1.1-0.1,1.6l-0.1,0.7c-0.7,5.1-1.3,8.8-3.1,9.6c-1.2,0.5-3.1-0.3-5.9-2.4l-0.5,0.5l5.5,9.6l0.3-0.1c6.7-2.4,7.7-3.8,10.4-15.4c1.2-5.1,0.8-9.1-1.3-11.8c-2.5-3.3-6.3-3.7-6.5-3.7c-0.1,0-6.7-0.3-14.6,0.2c0.2-0.8,2-7.5,2.1-7.9c2.5,0,4.7,0.1,5.7,0.5l0.4,0.1l0.4-4.7l-0.4,0c-1.1,0-2.8,0.1-5.1,0.3c1.3-4.4,1.9-5.8,2.1-6.2l0.2-0.3l-8.1-4.7L735.3,102.2z M739.7,127.5c-0.1,0.7-0.7,4.3-0.7,4.7c0,0-0.1,0-0.1,0c0-0.1,0.1-0.4,0.1-0.4l-4.4,0.4c0,0,0,0.5,0,0.6c-0.4,0.1-1,0.2-1.4,0.2c0-0.7,0-5,0-5.1C735.4,127.8,737.5,127.6,739.7,127.5z"/>
 <path fill="#101040" d="M804.5,129.3l0.1-6.4l4.4-0.3l-0.3-2.4l-4.1,1.2l0-5.7c2.4,0.3,5,0.8,7.1,0.9c4.3,0.3-1.2,14.1-1.2,14.1s16.3-14.4,2.6-18.1c-1.4,0-4.9,0.2-8.4,0.4l0-3.9l7.5-1.9l-7.5-0.1l0-4l-4.6-3.4l0.5,8.7l-4,2.7l4.1-1l0.2,3.2c-1.8,0.2-3.4,0.3-4.3,0.5c-11.5,2.2,1,17.2,1,17.2s-4-14,0.5-15.3c0.9-0.3,1.8-0.3,2.9-0.3l0.4,7l-3,0.9l3-0.2l0.2,4.1c-9.2,12.1-19.7,16.6-19.7,16.6s10.2-1.1,20-11.9l1,18.7c-3.7-1.5-7-3.6-7-3.6s2.4,7.1,7.5,10.1l4.3-5.1c-1-0.2-2.1-0.5-3.2-0.9l0.2-18.9c2.7,3.2,9,10.5,11.7,11l9-3C821.9,139.6,807.7,131.3,804.5,129.3z"/>
 <path fill="none" stroke="#10106C" stroke-width="0.75" d="M49.4,40.5c0,7.7-6.2,13.9-13.9,13.9c-7.7,0-13.9-6.2-13.9-13.9c0-7.7,6.2-13.9,13.9-13.9C43.2,26.6,49.4,32.8,49.4,40.5z"/>
 <circle fill="none" stroke="#10106C" stroke-width="1.6" cx="42" cy="40.5" r="6.5"/>
 <circle fill="none" stroke="#10106C" stroke-width="1.6" cx="29" cy="40.5" r="6.5"/>
 <circle fill="none" stroke="#10106C" stroke-width="1.6" cx="35.5" cy="34" r="6.5"/>
 <circle fill="none" stroke="#10106C" stroke-width="1.6" cx="35.5" cy="47" r="6.5"/>
 <path fill="none" stroke="#10106C" stroke-width="0.75" d="M44.8,40.5c0,5.1-4.2,9.3-9.3,9.3s-9.3-4.2-9.3-9.3c0-5.1,4.2-9.3,9.3-9.3S44.8,35.4,44.8,40.5z"/>
 <path fill="none" stroke="#BA0000" stroke-width="2" d="M52.2,40.5c0,9.2-7.5,16.7-16.7,16.7c-9.2,0-16.7-7.5-16.7-16.7c0-9.2,7.5-16.7,16.7-16.7C44.7,23.8,52.2,31.3,52.2,40.5z"/>
 <path fill="none" stroke="#10106C" stroke-width="0.75" d="M55,40.5C55,51.3,46.3,60,35.5,60C24.7,60,16,51.3,16,40.5C16,29.7,24.7,21,35.5,21C46.3,21,55,29.7,55,40.5z"/>
 <path fill="none" stroke="#10106C" stroke-width="0.75" d="M49.4,128.5c0,7.7-6.2,13.9-13.9,13.9c-7.7,0-13.9-6.2-13.9-13.9s6.2-13.9,13.9-13.9C43.2,114.6,49.4,120.8,49.4,128.5z"/>
 <circle fill="none" stroke="#10106C" stroke-width="1.6" cx="42" cy="128.5" r="6.5"/>
 <circle fill="none" stroke="#10106C" stroke-width="1.6" cx="29" cy="128.5" r="6.5"/>
 <circle fill="none" stroke="#10106C" stroke-width="1.6" cx="35.5" cy="122" r="6.5"/>
 <circle fill="none" stroke="#10106C" stroke-width="1.6" cx="35.5" cy="135" r="6.5"/>
 <path fill="none" stroke="#10106C" stroke-width="0.75" d="M44.8,128.5c0,5.1-4.2,9.3-9.3,9.3s-9.3-4.2-9.3-9.3c0-5.1,4.2-9.3,9.3-9.3S44.8,123.4,44.8,128.5z"/>
 <path fill="none" stroke="#BA0000" stroke-width="2" d="M52.2,128.5c0,9.2-7.5,16.7-16.7,16.7c-9.2,0-16.7-7.5-16.7-16.7c0-9.2,7.5-16.7,16.7-16.7C44.7,111.8,52.2,119.3,52.2,128.5z"/>
 <path fill="none" stroke="#10106C" stroke-width="0.75" d="M55,128.5c0,10.8-8.7,19.5-19.5,19.5c-10.8,0-19.5-8.7-19.5-19.5c0-10.8,8.7-19.5,19.5-19.5C46.3,109,55,117.7,55,128.5z"/>
 <path fill="#BA0000" d="M861.8,10.2c-0.4,0.4-0.5,1-0.5,1.7c0,1.3,0.4,2.9,0.6,3.5c0,0,0.3,7,0.4,7.8c-0.9,0.1-2.5,0.2-3.1,0.4l-0.8,0c-1.7,0.1-3.3,0.2-4,0.9l-0.3,0.3l0.3,0.4c0.5,0.6,0.7,2.3,0.9,4.1c0.5,3.7,1.1,8.3,4.1,10.1l0.6,0.3L860,39c0,0,0.1-0.3,0.1-0.7c0-0.3-0.1-0.8-0.2-1.5c0.8,0.1,2.5,0.3,3.1,0.3c0.1,0.8,2.7,33.4,2.7,33.4l1,0c0,0,1.1-32.2,1.1-33.2c0.7,0,3.8,0.1,4.7,0.2c-0.2,0.6-1,3.1-1,3.1l1.4-1.3c0.4-0.3,9.1-8.2,7.9-13.4c-0.4-1.7-1.8-2.9-4.1-3.5l-0.1,0h-0.1c-1.3,0-5.3,0.1-8.3,0.3c0.1-2.6,0.1-4,0.1-4.7c0-0.6,0-0.7,0-0.8c0,0,0-0.1,0-0.1c0-0.5,0.5-1.2,0.9-1.7c0.4-0.6,0.9-1.1,0.9-1.7c0-0.2-0.1-0.4-0.2-0.6c-0.6-0.9-5-3.2-6.9-3.4C862.4,9.8,862,9.9,861.8,10.2z M861.9,26.6c0,0,0.2,0,0.5,0c0,0.9,0.3,7.2,0.4,8.1c-0.8-0.1-2.7-0.3-3.3-0.3c-0.3-1.3-0.4-2.7-0.5-4.1c-0.1-1.2-0.2-2.4-0.4-3.5C859.5,26.8,861.9,26.6,861.9,26.6z M868,29.7c0,0,0.1-2.4,0.1-3.2c1.3,0.2,3,0.3,4.6,0.3c0,0,1.2,0,1.8,0c0,0.4-0.1,0.9-0.1,0.9c-0.2,2.2-0.5,4.8-1.4,7.4c-0.6,0-4.3-0.2-5.1-0.3C867.9,34.1,868,29.7,868,29.7z"/>
 <path fill="#BA0000" d="M861.8,98.2c-0.4,0.4-0.5,1-0.5,1.7c0,1.3,0.4,2.9,0.6,3.5c0,0,0.3,7,0.4,7.8c-0.9,0.1-2.5,0.2-3.1,0.4l-0.8,0c-1.7,0.1-3.3,0.2-4,0.9l-0.3,0.3l0.3,0.4c0.5,0.6,0.7,2.3,0.9,4.1c0.5,3.7,1.1,8.3,4.1,10.1l0.6,0.3l0.2-0.6c0,0,0.1-0.3,0.1-0.7c0-0.3-0.1-0.8-0.2-1.5c0.8,0.1,2.5,0.3,3.1,0.3c0.1,0.8,2.7,33.4,2.7,33.4l1,0c0,0,1.1-32.2,1.1-33.2c0.7,0,3.8,0.1,4.7,0.2c-0.2,0.6-1,3.1-1,3.1l1.4-1.3c0.4-0.3,9.1-8.2,7.9-13.4c-0.4-1.7-1.8-2.9-4.1-3.5l-0.1,0h-0.1c-1.3,0-5.3,0.1-8.3,0.3c0.1-2.6,0.1-4,0.1-4.7c0-0.6,0-0.7,0-0.8c0,0,0-0.1,0-0.1c0-0.5,0.5-1.2,0.9-1.7c0.4-0.6,0.9-1.1,0.9-1.7c0-0.2-0.1-0.4-0.2-0.6c-0.6-0.9-5-3.2-6.9-3.4C862.4,97.8,862,97.9,861.8,98.2z M861.9,114.6c0,0,0.2,0,0.5,0c0,0.9,0.3,7.2,0.4,8.1c-0.8-0.1-2.7-0.3-3.3-0.3c-0.3-1.3-0.4-2.7-0.5-4.1c-0.1-1.2-0.2-2.4-0.4-3.5C859.5,114.8,861.9,114.6,861.9,114.6z M868,117.7c0,0,0.1-2.4,0.1-3.2c1.3,0.2,3,0.3,4.6,0.3c0,0,1.2,0,1.8,0c0,0.4-0.1,0.9-0.1,0.9c-0.2,2.2-0.5,4.8-1.4,7.4c-0.6,0-4.3-0.2-5.1-0.3C867.9,122.1,868,117.7,868,117.7z"/>
 <path fill="#004C00" d="M925,47.8c0,0.1-1.4,5.1-5.1,7.1c-0.5-0.6-3.1-4.2-3.1-4.2l-0.9,0.5l4.4,11.4l1-0.2c0-2.2,1.1-3.5,2.4-4.9c1.8-2.1,3.8-4.5,2.3-9.7l-0.5-1.7L925,47.8z"/>
 <path fill="#004C00" d="M929.5,37c0,0-0.5,4.9-1.9,7.8l-0.3,0.7l0.7,0.1c1.8,0.1,3.5-3.7,4.1-5.4c0.4,0,1.4,0.1,2,0.1c-0.3,1.2-0.7,2.8-0.7,3.8c0,0.4,0,0.7,0.2,0.9l0.5,0.3c0.8,0.1,5.2-0.2,6.1-0.3l0-1c-1.5-0.2-3.3-0.7-3.5-1.2c-0.2-0.6,0.6-3,1.5-5l0.3-0.7l-9-0.6L929.5,37z"/>
 <path fill="#004C00" d="M942,46.6L927.3,47c0,0,4.9,6.3,5.4,6.9c-2.6,2.4-4.9,4.2-7,5.4l-0.6,0.4l0.6,0.5c1.4,1.1,4.2-0.2,8.6-4.2c2.3,3.2,3.8,5.5,4.3,6.9l0.2,0.7l2.7-2.2l0-0.2l0-0.3c0-0.5,0-2.1-4.7-7.3c3-3.1,5.6-6,5.6-6.1l0.7-0.9L942,46.6z M937.3,49.4c-0.8,0.9-1.7,1.8-2.1,2.3c-0.4-0.4-1.2-1.2-1.9-1.9C934.4,49.6,936,49.5,937.3,49.4z"/>
 <path fill="#004C00" d="M931.1,25.2l-1.7,1.7l-4.5-5.2l-0.2,0c-0.7,0-4.3,0.1-5.2,1.4c-0.1,0.1-0.1,0.3-0.1,0.4c0,0.1,0,0.1,0,0.2c0.1,0.5,0.7,0.7,1.8,1.1c0.5,0.2,1.2,0.5,1.5,0.7c-1.1,2.3-2.3,4.4-3.7,6.4c-0.7-0.4-4.1-2.5-4.1-2.5l-0.6,0.8c0,0,2.8,3.1,3.3,3.6c-2.8,3.5-6.2,6.6-10.4,9.5l0.4,0.9c12.8-3.3,21.9-16.2,22.1-16.5l2.3,2.2c-3.2,2-6.2,3.8-6.2,3.8l0.5,0.9c2-0.8,4.8-1.9,7.6-3L945,42.4l10.8-3.8l-0.1-1c-5.1-0.2-12-4.4-17.1-7.9c2.9-1,5.3-1.7,6.4-1.6c0.7,0,0.9-0.3,1-0.5c0.4-1.1-3.5-4.4-11.4-9.7l-0.5-0.3l-0.2,0.6 M934.9,27c0.7-1.2,1.6-2.9,1.9-3.3c0.5,0.3,1.8,1.1,2.5,1.6c-0.4,0.2-1.9,1.1-3.7,2.3C935.4,27.4,935.2,27.2,934.9,27z"/>
 <path fill="#004C00" d="M926.9,35.4l-6.2,3.5l0.3,0.9c0,0,1.1-0.1,1.8-0.1c-0.2,0.7-0.6,1.8-1.1,3.2c-0.6,0-5-0.2-5-0.2l0.8,0.9c0.3,0.3,1.6,1.7,2.7,1.7c0,0,0.3-0.1,0.6-0.1c-0.8,2-1.7,3.7-2.6,5l0.7,0.7c1.5-1.2,3.2-3.4,4.8-6.4c0.3-0.1,1.2-0.4,1.2-0.4l-0.1-1c0,0-0.2,0-0.4,0c1.8-3.6,3.1-7.1,3.1-7.1l0.5-1.3L926.9,35.4z"/>
 <path fill="#004C00" d="M925,135.8c0,0.1-1.4,5.1-5.1,7.1c-0.5-0.6-3.1-4.2-3.1-4.2l-0.9,0.5l4.4,11.4l1-0.2c0-2.2,1.1-3.5,2.4-4.9c1.8-2.1,3.8-4.5,2.3-9.7l-0.5-1.7L925,135.8z"/>
 <path fill="#004C00" d="M929.5,125c0,0-0.5,4.9-1.9,7.8l-0.3,0.7l0.7,0.1c1.8,0.1,3.5-3.7,4.1-5.4c0.4,0,1.4,0.1,2,0.1c-0.3,1.2-0.7,2.8-0.7,3.8c0,0.4,0,0.7,0.2,0.9l0.5,0.3c0.8,0.1,5.2-0.2,6.1-0.3l0-1c-1.5-0.2-3.3-0.7-3.5-1.2c-0.2-0.6,0.6-3,1.5-5l0.3-0.7l-9-0.6L929.5,125z"/>
 <path fill="#004C00" d="M942,134.6l-14.7,0.4c0,0,4.9,6.3,5.4,6.9c-2.6,2.4-4.9,4.2-7,5.4l-0.6,0.4l0.6,0.5c1.4,1.1,4.2-0.2,8.6-4.2c2.3,3.2,3.8,5.5,4.3,6.9l0.2,0.7l2.7-2.3l0-0.2l0-0.3c0-0.5,0-2.1-4.7-7.3c3-3.1,5.6-6,5.6-6.1l0.7-0.9L942,134.6z M937.3,137.4c-0.8,0.9-1.7,1.8-2.1,2.3c-0.4-0.4-1.2-1.2-1.9-1.9C934.4,137.6,936,137.5,937.3,137.4z"/>
 <path fill="#004C00" d="M931.1,113.2l-1.7,1.7l-4.5-5.2l-0.2,0c-0.7,0-4.3,0.1-5.2,1.4c-0.1,0.1-0.1,0.3-0.1,0.4c0,0.1,0,0.1,0,0.2c0.1,0.5,0.7,0.7,1.8,1.1c0.5,0.2,1.2,0.5,1.5,0.7c-1.1,2.3-2.3,4.4-3.7,6.4c-0.7-0.4-4.1-2.5-4.1-2.5l-0.6,0.8c0,0,2.8,3.1,3.3,3.6c-2.8,3.5-6.2,6.6-10.4,9.5l0.4,0.9c12.8-3.3,21.9-16.2,22.1-16.5l2.3,2.2c-3.2,2-6.2,3.8-6.2,3.8l0.5,0.9c2-0.8,4.8-1.9,7.6-3l11.4,10.9l10.8-3.8l-0.1-1c-5.1-0.2-12-4.4-17.1-7.9c2.9-1,5.3-1.7,6.4-1.6c0.7,0,0.9-0.3,1-0.5c0.4-1.1-3.5-4.4-11.4-9.7l-0.5-0.3l-0.2,0.6 M934.9,115c0.7-1.2,1.6-2.9,1.9-3.3c0.5,0.3,1.8,1.1,2.5,1.6c-0.4,0.2-1.9,1.1-3.7,2.3C935.4,115.4,935.2,115.2,934.9,115z"/>
 <path fill="#004C00" d="M926.9,123.4l-6.2,3.5l0.3,0.9c0,0,1.1-0.1,1.8-0.1c-0.2,0.7-0.6,1.8-1.1,3.2c-0.6,0-5-0.2-5-0.2l0.8,0.9c0.3,0.3,1.6,1.7,2.7,1.7c0,0,0.3-0.1,0.6-0.1c-0.8,2-1.7,3.7-2.6,5l0.7,0.7c1.5-1.2,3.2-3.4,4.8-6.4c0.3-0.1,1.2-0.4,1.2-0.4l-0.1-1c0,0-0.2,0-0.4,0c1.8-3.6,3.1-7.1,3.1-7.1l0.5-1.3L926.9,123.4z"/>
 <rect x="2386" y="12" rx="5" fill="#294D8E" width="35" height="57"/>
 <rect x="2387" y="13" rx="4" fill="#F4F4F4" width="33" height="55"/>
 <rect x="2390" y="16" rx="3" fill="#294D8E" width="27" height="49"/>
 <rect x="2393" y="19" rx="7" fill="#F4F4F4" width="21" height="43"/>
 <rect x="2386" y="100" rx="5" fill="#294D8E" width="35" height="57"/>
 <rect x="2387" y="101" rx="4" fill="#FFFFFF" width="33" height="55"/>
 <rect x="2390" y="104" rx="3" fill="#294D8E" width="27" height="49"/>
 <rect x="2393" y="107" rx="7" fill="#FFFFFF" width="21" height="43"/>
 <path fill="#99B9FF" stroke="#678ED3" d="M2323.8,13.9l-0.1,1.3c0,0,8.9-2.4,9.4-0.6c0,0-0.4,4.1-1.4,4.9c0-0.5-0.7-0.6-1.7-0.5c0.1-1.1,0.3-3.7,1-4l-1.6-0.7l-0.2,4.8c-0.5,0.1-1,0.2-1.5,0.3l-0.9-4.8l-1,0.4l0.9,4.7c-1.1,0.3-2,0.5-2,0.5l-1.8-7l-2.2-0.5l3.1,8.9c0,0,7.7-2.7,7.5-0.7c3.2-2.5,4.3-6.5,4.3-6.5C2333.4,11,2323.8,13.9,2323.8,13.9z"/>
 <path fill="#99B9FF" stroke="#678ED3" d="M2267.6,19.9c-0.8-2.5,4.7,2.6,2.6,2.2c-2.1-0.4-10.6,0.1-11.9,0.6l-0.6-2.2C2259.5,20.7,2267.6,19.9,2267.6,19.9z"/>
 <path fill="#99B9FF" stroke="#678ED3" d="M2139.6,16.1c-0.8-2.5,4.7,2.6,2.6,2.2c-2.1-0.4-10.6,0.1-11.9,0.6l-0.6-2.2C2131.5,16.9,2139.6,16.1,2139.6,16.1z"/>
 <polygon fill="#99B9FF" stroke="#678ED3" points="2264.9,16.3 2265.7,17.8 2260.9,18.3 2260.4,16.8"/>
 <path fill="#99B9FF" stroke="#678ED3" d="M2267.1,12.5c-2-2.3-2.8,0.6-9,0.6l1.1,1.7l7.7-1L2267.1,12.5z"/>
 <path fill="#99B9FF" stroke="#678ED3" d="M2203.6,18.9c-0.8-2.5,4.7,2.6,2.6,2.2c-2.1-0.4-10.6,0.1-11.9,0.6l-0.6-2.2C2195.5,19.7,2203.6,18.9,2203.6,18.9z"/>
 <path fill="#99B9FF" stroke="#678ED3" d="M2203.1,14.5c-2-2.3-2.8,0.6-9,0.6l1.1,1.7l7.7-1L2203.1,14.5z"/>
 <path fill="#99B9FF" stroke="#678ED3" d="M2323.8,101.9l-0.1,1.3c0,0,8.9-2.4,9.4-0.6c0,0-0.4,4.1-1.4,4.9c0-0.5-0.7-0.6-1.7-0.5c0.1-1.1,0.3-3.7,1-4l-1.6-0.7l-0.2,4.8c-0.5,0.1-1,0.2-1.5,0.3l-0.9-4.8l-1,0.4l0.9,4.7c-1.1,0.3-2,0.5-2,0.5l-1.8-7l-2.2-0.5l3.1,8.9c0,0,7.7-2.7,7.5-0.7c3.2-2.5,4.3-6.5,4.3-6.5C2333.4,99,2323.8,101.9,2323.8,101.9z"/>
 <path fill="#99B9FF" stroke="#678ED3" d="M2267.6,107.9c-0.8-2.5,4.7,2.6,2.6,2.2c-2.1-0.4-10.6,0.1-11.9,0.6l-0.6-2.2C2259.5,108.7,2267.6,107.9,2267.6,107.9z"/>
 <path fill="#99B9FF" stroke="#678ED3" d="M2139.6,104.1c-0.8-2.5,4.7,2.6,2.6,2.2c-2.1-0.4-10.6,0.1-11.9,0.6l-0.6-2.2C2131.5,104.9,2139.6,104.1,2139.6,104.1z"/>
 <polygon fill="#99B9FF" stroke="#678ED3" points="2264.9,104.3 2265.7,105.8 2260.9,106.3 2260.4,104.8 "/>
 <path fill="#99B9FF" stroke="#678ED3" d="M2267.1,100.5c-2-2.3-2.8,0.6-9,0.6l1.1,1.7l7.7-1L2267.1,100.5z"/>
 <path fill="#99B9FF" stroke="#678ED3" d="M2203.6,106.9c-0.8-2.5,4.7,2.6,2.6,2.2c-2.1-0.4-10.6,0.1-11.9,0.6l-0.6-2.2C2195.5,107.7,2203.6,106.9,2203.6,106.9z"/>
 <path fill="#99B9FF" stroke="#678ED3" d="M2203.1,102.5c-2-2.3-2.8,0.6-9,0.6l1.1,1.7l7.7-1L2203.1,102.5z"/>
 <path fill="#DBC879" stroke="#7C5A2D" stroke-width="0.5" d="M2643.1,20.3l-0.1,1.3c0,0,8.9-2.4,9.4-0.6c0,0-0.4,4.1-1.4,4.9c0-0.5-0.7-0.6-1.7-0.5c0.1-1.1,0.3-3.7,1-4l-1.6-0.7l-0.2,4.8c-0.5,0.1-1,0.2-1.5,0.3l-0.9-4.8l-1,0.4l0.9,4.7c-1.1,0.3-2,0.5-2,0.5l-1.8-7L2640,19l3.1,8.9c0,0,7.7-2.7,7.5-0.7c3.2-2.5,4.3-6.5,4.3-6.5C2652.7,17.4,2643.1,20.3,2643.1,20.3z"/>
 <path fill="#DBC879" stroke="#7C5A2D" stroke-width="0.5" d="M2586.9,26.3c-0.8-2.5,4.7,2.6,2.6,2.2c-2.1-0.4-10.6,0.1-11.9,0.6l-0.6-2.2C2578.9,27.1,2586.9,26.3,2586.9,26.3z"/>
 <path fill="#DBC879" stroke="#7C5A2D" stroke-width="0.5" d="M2458.9,22.5c-0.8-2.5,4.7,2.6,2.6,2.2c-2.1-0.4-10.6,0.1-11.9,0.6l-0.6-2.2C2450.9,23.3,2458.9,22.5,2458.9,22.5z"/>
 <polygon fill="#DBC879" stroke="#7C5A2D" stroke-width="0.5" points="2584.3,22.6 2585,24.1 2580.3,24.7 2579.7,23.2 "/>
 <path fill="#DBC879" stroke="#7C5A2D" stroke-width="0.5" d="M2586.5,18.8c-2-2.3-2.8,0.6-9,0.6l1.1,1.7l7.7-1L2586.5,18.8z"/>
 <path fill="#DBC879" stroke="#7C5A2D" stroke-width="0.5" d="M2522.9,25.3c-0.8-2.5,4.7,2.6,2.6,2.2c-2.1-0.4-10.6,0.1-11.9,0.6l-0.6-2.2C2514.9,26.1,2522.9,25.3,2522.9,25.3z"/>
 <path fill="#DBC879" stroke="#7C5A2D" stroke-width="0.5" d="M2522.5,20.8c-2-2.3-2.8,0.6-9,0.6l1.1,1.7l7.7-1L2522.5,20.8z"/>
 <path fill="#DBC879" stroke="#7C5A2D" stroke-width="0.5" d="M2643.1,108.3l-0.1,1.3c0,0,8.9-2.4,9.4-0.6c0,0-0.4,4.1-1.4,4.9c0-0.5-0.7-0.6-1.7-0.5c0.1-1.1,0.3-3.7,1-4l-1.6-0.7l-0.2,4.8c-0.5,0.1-1,0.2-1.5,0.3l-0.9-4.8l-1,0.4l0.9,4.7c-1.1,0.3-2,0.5-2,0.5l-1.8-7l-2.2-0.5l3.1,8.9c0,0,7.7-2.7,7.5-0.7c3.2-2.5,4.3-6.5,4.3-6.5C2652.7,105.4,2643.1,108.3,2643.1,108.3z"/>
 <path fill="#DBC879" stroke="#7C5A2D" stroke-width="0.5" d="M2586.9,114.3c-0.8-2.5,4.7,2.6,2.6,2.2c-2.1-0.4-10.6,0.1-11.9,0.6l-0.6-2.2C2578.9,115.1,2586.9,114.3,2586.9,114.3z"/>
 <path fill="#DBC879" stroke="#7C5A2D" stroke-width="0.5" d="M2458.9,110.5c-0.8-2.5,4.7,2.6,2.6,2.2c-2.1-0.4-10.6,0.1-11.9,0.6l-0.6-2.2C2450.9,111.3,2458.9,110.5,2458.9,110.5z"/>
 <polygon fill="#DBC879" stroke="#7C5A2D" stroke-width="0.5" points="2584.3,110.6 2585,112.1 2580.3,112.7 2579.7,111.2 "/>
 <path fill="#DBC879" stroke="#7C5A2D" stroke-width="0.5" d="M2586.5,106.8c-2-2.3-2.8,0.6-9,0.6l1.1,1.7l7.7-1L2586.5,106.8z"/>
 <path fill="#DBC879" stroke="#7C5A2D" stroke-width="0.5" d="M2522.9,113.3c-0.8-2.5,4.7,2.6,2.6,2.2c-2.1-0.4-10.6,0.1-11.9,0.6l-0.6-2.2C2514.9,114.1,2522.9,113.3,2522.9,113.3z"/>
 <path fill="#DBC879" stroke="#7C5A2D" stroke-width="0.5" d="M2522.5,108.8c-2-2.3-2.8,0.6-9,0.6l1.1,1.7l7.7-1L2522.5,108.8z"/>
 <path fill="#101040" d="M632.3,54.7c-2-0.9-11.8,3.3-11.8,3.3l0.5-20.7c0,0,5.3-4.3,9.6-1.7l-1.2-5c-1.4-0.2-8.4,5.5-8.4,5.5s-0.6-18.8,4.8-19.9c0,0-8.9-2.6-9.7-2.2c-0.4,0.2-0.4,13.8-0.2,27.1c-3.2,3.1-5.9,6.2-7.1,7.3l0.4-28.5c0,0-4.7-2.6-5.8-1.4l0.2,14.8c-0.3-0.5-0.7-0.9-1-1.3c-1-1.3-6.1-4.2-6.1-4.2s1.7,5.6,2.5,6.6c0.7,0.9,3,2.9,4.6,2.2l0.2,16.5c-3.4,3-7.9,6.8-8.5,5.4c-1.5-3.2-4.7-3-5.2-1.5c-0.5,1.6,4.2,10.2,5.8,10.1c0.8-0.1,4.4-4.9,8-10l0.1,5.3c1.6,2.1,3.8,0.5,4.6-0.7l0.3-11c1.1-1.6,4-4.5,7.1-7.9c0.2,12.1,0.3,22.8,0.3,22.8c4.9-5.2,16.7-4,16.7-4L632.3,54.7z"/>
</svg>
