<!-- SPDX-FileCopyrightText: 2025 Mahjongg Contributors
     SPDX-License-Identifier: GPL-2.0-or-later -->
<svg height="128px" viewBox="0 0 128 128" width="128px" xmlns="http://www.w3.org/2000/svg" xmlns:xlink="http://www.w3.org/1999/xlink">
    <filter id="a" height="100%" width="100%" x="0%" y="0%">
        <feColorMatrix color-interpolation-filters="sRGB" values="0 0 0 0 1 0 0 0 0 1 0 0 0 0 1 0 0 0 1 0"/>
    </filter>
    <linearGradient id="b" gradientUnits="userSpaceOnUse">
        <stop offset="0" stop-color="#26a269"/>
        <stop offset="0.0769231" stop-color="#57e389"/>
        <stop offset="0.153846" stop-color="#26a269"/>
        <stop offset="0.846154" stop-color="#26a269"/>
        <stop offset="0.923077" stop-color="#57e389"/>
        <stop offset="1" stop-color="#26a269"/>
    </linearGradient>
    <linearGradient id="c" gradientTransform="matrix(1 0 0 0.894737 -4 -141.263214)" x1="12" x2="64" xlink:href="#b" y1="254.000015" y2="254.000015"/>
    <linearGradient id="d" gradientUnits="userSpaceOnUse">
        <stop offset="0" stop-color="#c0bfbc"/>
        <stop offset="0.0769231" stop-color="#f6f5f4"/>
        <stop offset="0.153846" stop-color="#c0bfbc"/>
        <stop offset="0.846154" stop-color="#c0bfbc"/>
        <stop offset="0.923077" stop-color="#f6f5f4"/>
        <stop offset="1" stop-color="#c0bfbc"/>
    </linearGradient>
    <linearGradient id="e" gradientTransform="matrix(1 0 0 0.894737 -4 -149.263214)" x1="12" x2="64" xlink:href="#d" y1="254.000015" y2="254.000015"/>
    <linearGradient id="f" gradientTransform="matrix(1 0 0 0.894737 56 -141.263214)" x1="12" x2="64" xlink:href="#b" y1="254.000015" y2="254.000015"/>
    <linearGradient id="g" gradientTransform="matrix(1 0 0 0.894737 56 -149.263214)" x1="12" x2="64" xlink:href="#d" y1="254.000015" y2="254.000015"/>
    <clipPath id="h">
        <path d="m 8 32 h 112 v 74 h -112 z m 0 0"/>
    </clipPath>
    <clipPath id="i">
        <path d="m 16 32 c -4.433594 0 -8 3.566406 -8 8 v 58 c 0 4.433594 3.566406 8 8 8 h 36 c 4.433594 0 8 -3.566406 8 -8 v -58 c 0 -4.433594 -3.566406 -8 -8 -8 z m 60 0 c -4.433594 0 -8 3.566406 -8 8 v 58 c 0 4.433594 3.566406 8 8 8 h 36 c 4.433594 0 8 -3.566406 8 -8 v -58 c 0 -4.433594 -3.566406 -8 -8 -8 z m 0 0"/>
    </clipPath>
    <mask id="j">
        <g filter="url(#a)">
            <rect fill-opacity="0.1" height="153.6" width="153.6" x="-12.8" y="-12.8"/>
        </g>
    </mask>
    <clipPath id="k">
        <rect height="152" width="192"/>
    </clipPath>
    <linearGradient id="l" gradientTransform="matrix(1 0 0 0.894737 26 -165.263215)" x1="12" x2="64" xlink:href="#b" y1="254.000015" y2="254.000015"/>
    <linearGradient id="m" gradientTransform="matrix(1 0 0 0.894737 26 -173.263215)" x1="12" x2="64" xlink:href="#d" y1="254.000015" y2="254.000015"/>
    <path d="m 16 52 h 36 c 4.417969 0 8 3.582031 8 8 v 52 c 0 4.417969 -3.582031 8 -8 8 h -36 c -4.417969 0 -8 -3.582031 -8 -8 v -52 c 0 -4.417969 3.582031 -8 8 -8 z m 0 0" fill="url(#c)"/>
    <path d="m 16 44 h 36 c 4.417969 0 8 3.582031 8 8 v 52 c 0 4.417969 -3.582031 8 -8 8 h -36 c -4.417969 0 -8 -3.582031 -8 -8 v -52 c 0 -4.417969 3.582031 -8 8 -8 z m 0 0" fill="url(#e)"/>
    <path d="m 16 32 h 36 c 4.417969 0 8 3.582031 8 8 v 58 c 0 4.417969 -3.582031 8 -8 8 h -36 c -4.417969 0 -8 -3.582031 -8 -8 v -58 c 0 -4.417969 3.582031 -8 8 -8 z m 0 0" fill="#f6f5f4"/>
    <path d="m 76 52 h 36 c 4.417969 0 8 3.582031 8 8 v 52 c 0 4.417969 -3.582031 8 -8 8 h -36 c -4.417969 0 -8 -3.582031 -8 -8 v -52 c 0 -4.417969 3.582031 -8 8 -8 z m 0 0" fill="url(#f)"/>
    <path d="m 76 44 h 36 c 4.417969 0 8 3.582031 8 8 v 52 c 0 4.417969 -3.582031 8 -8 8 h -36 c -4.417969 0 -8 -3.582031 -8 -8 v -52 c 0 -4.417969 3.582031 -8 8 -8 z m 0 0" fill="url(#g)"/>
    <path d="m 76 32 h 36 c 4.417969 0 8 3.582031 8 8 v 58 c 0 4.417969 -3.582031 8 -8 8 h -36 c -4.417969 0 -8 -3.582031 -8 -8 v -58 c 0 -4.417969 3.582031 -8 8 -8 z m 0 0" fill="#f6f5f4"/>
    <path d="m 90.519531 42.386719 c -1.140625 0.042969 -1.238281 1.320312 -1 2.210937 c 0.769531 2.707032 1.785157 3.839844 3.039063 5.722656 c 0.222656 0.324219 0.472656 0.945313 0.433594 1.242188 l -0.039063 3.023438 c -2.019531 0.449218 -3.945313 0.765624 -5.308594 0.671874 c -3.53125 -0.175781 -0.917969 2.117188 -0.125 2.058594 c 1.535157 -0.152344 3.417969 -0.386718 5.410157 -0.679687 l -0.027344 2.082031 c -4.746094 0.980469 -8.777344 1.6875 -9.148438 1.332031 c -1.980468 -1.457031 -4.082031 -0.570312 -2.828125 1.394531 c 2.011719 3.699219 5.085938 7.101563 6.570313 11.109376 c 0.027344 0.058593 0.054687 0.109374 0.082031 0.160156 c -0.570313 0.902344 -1.179687 1.6875 -1.890625 2.410156 c -0.898438 -0.9375 -1.515625 -0.449219 -1.011719 0.9375 c -1.808593 1.523438 -4.238281 2.851562 -7.9375 4.582031 c -2.90625 1.257813 -2.699219 3.171875 0.824219 1.863281 c 3.84375 -1.617187 6.46875 -2.992187 8.332031 -4.375 c 4.742188 6.621094 5.160157 7.527344 5.234375 14.671876 c 0.199219 3.914062 3.933594 3.304687 4.28125 0.824218 c 0.425782 -2.679687 -0.203125 -6.945312 -0.230468 -9.890625 c -0.03125 -3.851562 -0.054688 -7.546875 0 -11.183593 c 0.40625 -0.066407 0.8125 -0.136719 1.226562 -0.207032 c 2.835938 4.625 6.15625 11.933594 8.128906 10.617188 c 1.839844 -1.277344 4.203125 -1.429688 5.210938 -1.136719 c 1.3125 0.375 1.378906 1.039063 2.117187 1.46875 c 1.933594 0.886719 1.53125 -0.269531 0.855469 -1.28125 c -1.546875 -2.582031 -8.261719 -4.253906 -13.359375 -10.085937 c 0.164063 -0.015626 0.328125 -0.035157 0.496094 -0.050782 c 0.648437 -0.066406 1.507812 0.699219 1.992187 0.46875 c 0.425782 -0.25 0.605469 -1.148437 0.71875 -1.710937 c 0.847656 -3.40625 3.472656 -6.390625 4.9375 -9.75 c 0.1875 -0.402344 1.222656 -0.476563 1.214844 -0.863281 c -0.152344 -1.449219 -2.144531 -4.117188 -3.296875 -4.050782 c -2.523437 0.566406 -6.023437 1.359375 -9.476563 2.101563 c 0.0625 -0.644531 0.136719 -1.292969 0.210938 -1.941407 c 2.714844 -0.453124 5.394531 -0.972656 7.476562 -1.484374 c 0.308594 -0.011719 -0.023437 -2.304688 -2.148437 -2.539063 c -0.644531 -0.03125 -0.535156 0.351563 -1.296875 0.648437 c -1.050781 0.25 -2.34375 0.601563 -3.722656 0.960938 c 0.09375 -0.695312 0.195312 -1.394531 0.308594 -2.097656 c 0.320312 -1.699219 2.84375 -3.09375 4.207031 -3.582032 c 0.601562 -0.21875 1.273437 -1.875 0.109375 -1.941406 c -3.117188 -0.351562 -6.472656 -2.085937 -9.351563 -3.421875 c -0.5 -0.21875 -0.898437 -0.300781 -1.21875 -0.289062 z m 12.039063 18.085937 c 1.542968 -0.039062 -0.050782 3.359375 -0.683594 3.503906 c -0.703125 0.109376 -0.8125 -0.980468 -1.675781 -1 c -0.648438 0.074219 -0.503907 0.527344 -1.171875 0.742188 c -1.273438 0.273438 -2.441406 0.488281 -3.578125 0.671875 c 0.0625 -1.074219 0.132812 -2.148437 0.21875 -3.226563 c 3.027343 -0.414062 5.714843 -0.671874 6.890625 -0.691406 z m -9.691406 1.109375 l -0.042969 3.1875 c -1.589844 0.203125 -3.230469 0.378907 -5.113281 0.578125 c -0.539063 0.015625 -1.867188 -2.308594 -1.117188 -2.496094 c 1.796875 -0.472656 4.035156 -0.90625 6.273438 -1.269531 z m 5.921874 5.203125 c 0.945313 0.023438 1.601563 0.140625 1.738282 0.398438 c 0.496094 0.921875 -0.351563 1.851562 -0.96875 1.953125 c -1.285156 0.207031 -2.832032 0.464843 -4.328125 0.691406 c 0.027343 -0.960937 0.058593 -1.917969 0.097656 -2.875 c 1.285156 -0.121094 2.515625 -0.191406 3.460937 -0.167969 z m -5.992187 0.460938 l -0.035156 2.929687 c -1.777344 0.21875 -3.144531 0.304688 -3.355469 0.0625 c -0.332031 -0.378906 -1 -1.472656 -0.894531 -2.214843 c 0.519531 -0.191407 2.269531 -0.511719 4.285156 -0.777344 z m -0.070313 5.699218 l -0.082031 6.457032 c 0.003907 0.871094 -0.152343 3.625 -0.660156 3.191406 c -1.777344 -1.460938 -2.460937 -2.359375 -4.8125 -5.519531 c 1.277344 -1.1875 2.09375 -2.425781 2.730469 -3.871094 c 0.988281 -0.042969 1.917968 -0.136719 2.824218 -0.257813 z m 0 0" fill="#1a5fb4" fill-rule="evenodd"/>
    <path d="m 32.527344 41.136719 c -0.035156 0.003906 -0.058594 0.015625 -0.078125 0.03125 c -0.785157 0.859375 -3.90625 2.34375 -4.050781 3.917969 c 0.042968 0.445312 -0.019532 1.324218 0.671874 1.578124 c 0.597657 0.0625 2.105469 1.21875 1.808594 3.046876 c 0 2.386718 0.003906 4.503906 0.015625 6.414062 c -2.445312 0.621094 -5.261719 1.34375 -8.910156 2.296875 c -0.757813 -0.011719 -2.308594 -0.128906 -3.027344 -1.324219 c -0.664062 -0.828125 -1.351562 0.09375 -1.316406 0.941406 c 0.050781 1.164063 0.082031 2.132813 0.625 2.679688 c 3.023437 2.785156 4.058594 5.765625 4.5 9.175781 c -0.046875 0.726563 -0.648437 1.394531 0.445313 1.34375 c 0.574218 -0.039062 3.773437 -0.292969 7.816406 -0.421875 c 0.039062 4.382813 0.03125 8.519532 -0.117188 15.734375 c -0.601562 5.609375 0.71875 8.585938 1.15625 9.277344 c 0.3125 0.703125 0.652344 0.585937 0.808594 0.152344 c 1.386719 -3.820313 1.992188 -1.339844 1.570312 -10.972657 c -0.019531 -4.769531 -0.054687 -9.683593 -0.03125 -14.265624 c 2.804688 -0.027344 5.757813 0.03125 8.394532 0.261718 c 0.648437 0.066406 0.761718 -0.515625 0.71875 -0.753906 c -0.371094 -2.039062 3.394531 -8.5625 4.65625 -11.230469 c 0.261718 -0.550781 1.648437 -0.617187 1.945312 -0.6875 v -0.003906 c 0.03125 -0.023437 0.386719 -0.257813 0.152344 -0.542969 c -1.496094 -1.855468 -4.585938 -5.503906 -5.105469 -5.339844 c -4.117187 1.105469 -7.042969 1.851563 -10.175781 2.644532 c 0.3125 -2.816406 0.78125 -4.65625 1.476562 -5.042969 c 0.925782 -0.742187 2.140626 -3.058594 1.851563 -3.597656 c 0.316406 -0.511719 -4.960937 -5.363281 -5.800781 -5.3125 z m 9.675781 16.179687 c 1.269531 0.007813 1.875 0.335938 1.371094 1.164063 c -1.550781 3.113281 -3.378907 9.203125 -3.933594 9.109375 c -1.988281 -0.015625 -3.710937 0.007812 -5.203125 0.046875 c 0.042969 -3.363281 0.125 -6.472657 0.28125 -9.113281 c 2.960938 -0.683594 5.796875 -1.222657 7.484375 -1.207032 z m -11.289063 2.140625 c 0.023438 3.320313 0.054688 5.945313 0.082032 8.316407 c -2.625 0.132812 -4.003906 0.257812 -4.480469 0.101562 c -0.304687 -0.113281 -0.753906 -3.476562 -2.695313 -5.886719 c -0.308593 -0.378906 -0.183593 -0.65625 0.3125 -0.777343 c 1.199219 -0.269532 3.828126 -0.996094 6.78125 -1.753907 z m 0 0" fill="#ed333b" fill-rule="evenodd"/>
    <g clip-path="url(#h)">
        <g clip-path="url(#i)">
            <g mask="url(#j)">
                <g clip-path="url(#k)" transform="matrix(1 0 0 1 -8 -16)">
                    <path d="m 46 190 h 36 c 4.417969 0 8 4.003906 8 8.941406 v 58.117188 c 0 4.9375 -3.582031 8.941406 -8 8.941406 h -36 c -4.417969 0 -8 -4.003906 -8 -8.941406 v -58.117188 c 0 -4.9375 3.582031 -8.941406 8 -8.941406 z m 0 0" fill="none" stroke="#000000" stroke-width="4" transform="matrix(1 0 0 1 8 -156)"/>
                </g>
            </g>
        </g>
    </g>
    <path d="m 46 28 h 36 c 4.417969 0 8 3.582031 8 8 v 52 c 0 4.417969 -3.582031 8 -8 8 h -36 c -4.417969 0 -8 -3.582031 -8 -8 v -52 c 0 -4.417969 3.582031 -8 8 -8 z m 0 0" fill="url(#l)"/>
    <path d="m 46 20 h 36 c 4.417969 0 8 3.582031 8 8 v 52 c 0 4.417969 -3.582031 8 -8 8 h -36 c -4.417969 0 -8 -3.582031 -8 -8 v -52 c 0 -4.417969 3.582031 -8 8 -8 z m 0 0" fill="url(#m)"/>
    <path d="m 46 8 h 36 c 4.417969 0 8 3.582031 8 8 v 58 c 0 4.417969 -3.582031 8 -8 8 h -36 c -4.417969 0 -8 -3.582031 -8 -8 v -58 c 0 -4.417969 3.582031 -8 8 -8 z m 0 0" fill="#f6f5f4"/>
    <path d="m 73 45 c 0 4.96875 -4.03125 9 -9 9 s -9 -4.03125 -9 -9 s 4.03125 -9 9 -9 s 9 4.03125 9 9 z m 0 0" fill="#ed333b"/>
    <g fill="#ffffff">
        <path d="m 58.5 39.5 c 0 1.324219 0.527344 2.597656 1.464844 3.535156 s 2.210937 1.464844 3.535156 1.464844 c 0 -1.324219 -0.527344 -2.597656 -1.464844 -3.535156 s -2.210937 -1.464844 -3.535156 -1.464844 z m 0 0"/>
        <path d="m 69.5 39.5 c 0 1.324219 -0.527344 2.597656 -1.464844 3.535156 s -2.210937 1.464844 -3.535156 1.464844 c 0 -1.324219 0.527344 -2.597656 1.464844 -3.535156 s 2.210937 -1.464844 3.535156 -1.464844 z m 0 0"/>
        <path d="m 58.5 50.5 c 0 -1.324219 0.527344 -2.597656 1.464844 -3.535156 s 2.210937 -1.464844 3.535156 -1.464844 c 0 1.324219 -0.527344 2.597656 -1.464844 3.535156 s -2.210937 1.464844 -3.535156 1.464844 z m 0 0"/>
        <path d="m 69.5 50.5 c 0 -1.324219 -0.527344 -2.597656 -1.464844 -3.535156 s -2.210937 -1.464844 -3.535156 -1.464844 c 0 1.324219 0.527344 2.597656 1.464844 3.535156 s 2.210937 1.464844 3.535156 1.464844 z m 0 0"/>
    </g>
    <path d="m 84 28 c 0 4.96875 -4.03125 9 -9 9 s -9 -4.03125 -9 -9 s 4.03125 -9 9 -9 s 9 4.03125 9 9 z m 0 0" fill="#26a269"/>
    <path d="m 69.5 22.5 c 0 1.324219 0.527344 2.597656 1.464844 3.535156 s 2.210937 1.464844 3.535156 1.464844 c 0 -1.324219 -0.527344 -2.597656 -1.464844 -3.535156 s -2.210937 -1.464844 -3.535156 -1.464844 z m 0 0" fill="#ffffff"/>
    <path d="m 80.5 22.5 c 0 1.324219 -0.527344 2.597656 -1.464844 3.535156 s -2.210937 1.464844 -3.535156 1.464844 c 0 -1.324219 0.527344 -2.597656 1.464844 -3.535156 s 2.210937 -1.464844 3.535156 -1.464844 z m 0 0" fill="#ffffff"/>
    <path d="m 69.5 33.5 c 0 -1.324219 0.527344 -2.597656 1.464844 -3.535156 s 2.210937 -1.464844 3.535156 -1.464844 c 0 1.324219 -0.527344 2.597656 -1.464844 3.535156 s -2.210937 1.464844 -3.535156 1.464844 z m 0 0" fill="#ffffff"/>
    <path d="m 80.5 33.5 c 0 -1.324219 -0.527344 -2.597656 -1.464844 -3.535156 s -2.210937 -1.464844 -3.535156 -1.464844 c 0 1.324219 0.527344 2.597656 1.464844 3.535156 s 2.210937 1.464844 3.535156 1.464844 z m 0 0" fill="#ffffff"/>
    <path d="m 62 28 c 0 4.96875 -4.03125 9 -9 9 s -9 -4.03125 -9 -9 s 4.03125 -9 9 -9 s 9 4.03125 9 9 z m 0 0" fill="#1a5fb4"/>
    <path d="m 47.5 22.5 c 0 1.324219 0.527344 2.597656 1.464844 3.535156 s 2.210937 1.464844 3.535156 1.464844 c 0 -1.324219 -0.527344 -2.597656 -1.464844 -3.535156 s -2.210937 -1.464844 -3.535156 -1.464844 z m 0 0" fill="#ffffff"/>
    <path d="m 58.5 22.5 c 0 1.324219 -0.527344 2.597656 -1.464844 3.535156 s -2.210937 1.464844 -3.535156 1.464844 c 0 -1.324219 0.527344 -2.597656 1.464844 -3.535156 s 2.210937 -1.464844 3.535156 -1.464844 z m 0 0" fill="#ffffff"/>
    <path d="m 47.5 33.5 c 0 -1.324219 0.527344 -2.597656 1.464844 -3.535156 s 2.210937 -1.464844 3.535156 -1.464844 c 0 1.324219 -0.527344 2.597656 -1.464844 3.535156 s -2.210937 1.464844 -3.535156 1.464844 z m 0 0" fill="#ffffff"/>
    <path d="m 58.5 33.5 c 0 -1.324219 -0.527344 -2.597656 -1.464844 -3.535156 s -2.210937 -1.464844 -3.535156 -1.464844 c 0 1.324219 0.527344 2.597656 1.464844 3.535156 s 2.210937 1.464844 3.535156 1.464844 z m 0 0" fill="#ffffff"/>
    <path d="m 84 62 c 0 4.96875 -4.03125 9 -9 9 s -9 -4.03125 -9 -9 s 4.03125 -9 9 -9 s 9 4.03125 9 9 z m 0 0" fill="#1a5fb4"/>
    <path d="m 69.5 56.5 c 0 1.324219 0.527344 2.597656 1.464844 3.535156 s 2.210937 1.464844 3.535156 1.464844 c 0 -1.324219 -0.527344 -2.597656 -1.464844 -3.535156 s -2.210937 -1.464844 -3.535156 -1.464844 z m 0 0" fill="#ffffff"/>
    <path d="m 80.5 56.5 c 0 1.324219 -0.527344 2.597656 -1.464844 3.535156 s -2.210937 1.464844 -3.535156 1.464844 c 0 -1.324219 0.527344 -2.597656 1.464844 -3.535156 s 2.210937 -1.464844 3.535156 -1.464844 z m 0 0" fill="#ffffff"/>
    <path d="m 69.5 67.5 c 0 -1.324219 0.527344 -2.597656 1.464844 -3.535156 s 2.210937 -1.464844 3.535156 -1.464844 c 0 1.324219 -0.527344 2.597656 -1.464844 3.535156 s -2.210937 1.464844 -3.535156 1.464844 z m 0 0" fill="#ffffff"/>
    <path d="m 80.5 67.5 c 0 -1.324219 -0.527344 -2.597656 -1.464844 -3.535156 s -2.210937 -1.464844 -3.535156 -1.464844 c 0 1.324219 0.527344 2.597656 1.464844 3.535156 s 2.210937 1.464844 3.535156 1.464844 z m 0 0" fill="#ffffff"/>
    <path d="m 62 62 c 0 4.96875 -4.03125 9 -9 9 s -9 -4.03125 -9 -9 s 4.03125 -9 9 -9 s 9 4.03125 9 9 z m 0 0" fill="#26a269"/>
    <path d="m 47.5 56.5 c 0 1.324219 0.527344 2.597656 1.464844 3.535156 s 2.210937 1.464844 3.535156 1.464844 c 0 -1.324219 -0.527344 -2.597656 -1.464844 -3.535156 s -2.210937 -1.464844 -3.535156 -1.464844 z m 0 0" fill="#ffffff"/>
    <path d="m 58.5 56.5 c 0 1.324219 -0.527344 2.597656 -1.464844 3.535156 s -2.210937 1.464844 -3.535156 1.464844 c 0 -1.324219 0.527344 -2.597656 1.464844 -3.535156 s 2.210937 -1.464844 3.535156 -1.464844 z m 0 0" fill="#ffffff"/>
    <path d="m 47.5 67.5 c 0 -1.324219 0.527344 -2.597656 1.464844 -3.535156 s 2.210937 -1.464844 3.535156 -1.464844 c 0 1.324219 -0.527344 2.597656 -1.464844 3.535156 s -2.210937 1.464844 -3.535156 1.464844 z m 0 0" fill="#ffffff"/>
    <path d="m 58.5 67.5 c 0 -1.324219 -0.527344 -2.597656 -1.464844 -3.535156 s -2.210937 -1.464844 -3.535156 -1.464844 c 0 1.324219 0.527344 2.597656 1.464844 3.535156 s 2.210937 1.464844 3.535156 1.464844 z m 0 0" fill="#ffffff"/>
</svg>
