<!-- SPDX-FileCopyrightText: 2024 Mahjongg Contributors
     SPDX-License-Identifier: GPL-2.0-or-later -->
<svg height="128px" viewBox="0 0 128 128" width="128px" xmlns="http://www.w3.org/2000/svg" xmlns:xlink="http://www.w3.org/1999/xlink">
    <filter id="a" height="100%" width="100%" x="0%" y="0%">
        <feColorMatrix color-interpolation-filters="sRGB" values="0 0 0 0 1 0 0 0 0 1 0 0 0 0 1 0 0 0 1 0"/>
    </filter>
    <linearGradient id="b" gradientUnits="userSpaceOnUse" x1="12.098" x2="117.203003" y1="109.261993" y2="109.261993">
        <stop offset="0" stop-color="#f7c54c"/>
        <stop offset="0.03" stop-color="#f9f06b"/>
        <stop offset="0.057" stop-color="#f5e35a" stop-opacity="0.996078"/>
        <stop offset="0.126" stop-color="#e5a50a" stop-opacity="0.984314"/>
        <stop offset="0.416" stop-color="#ebb517" stop-opacity="0.984314"/>
        <stop offset="0.455" stop-color="#f2cf65" stop-opacity="0.984314"/>
        <stop offset="0.494" stop-color="#c09610" stop-opacity="0.984314"/>
        <stop offset="0.494" stop-color="#f4d676" stop-opacity="0.988235"/>
        <stop offset="0.532" stop-color="#f4d87a" stop-opacity="0.988235"/>
        <stop offset="0.593" stop-color="#eec01e" stop-opacity="0.988235"/>
        <stop offset="0.877" stop-color="#f6d32d"/>
        <stop offset="0.954" stop-color="#f9f06b"/>
        <stop offset="1" stop-color="#e5a50a" stop-opacity="0.933333"/>
    </linearGradient>
    <clipPath id="c">
        <rect height="128" width="128"/>
    </clipPath>
    <clipPath id="d">
        <rect height="128" width="128"/>
    </clipPath>
    <mask id="e">
        <g filter="url(#a)">
            <g clip-path="url(#d)" filter="url(#a)">
                <g clip-path="url(#c)">
                    <path d="m 20 24 h 36 c 4.417969 0 8 3.582031 8 8 v 76 c 0 4.417969 -3.582031 8 -8 8 h -36 c -4.417969 0 -8 -3.582031 -8 -8 v -76 c 0 -4.417969 3.582031 -8 8 -8 z m 0 0" fill="url(#b)"/>
                    <path d="m 72 24 h 36 c 4.417969 0 8 3.582031 8 8 v 76 c 0 4.417969 -3.582031 8 -8 8 h -36 c -4.417969 0 -8 -3.582031 -8 -8 v -76 c 0 -4.417969 3.582031 -8 8 -8 z m 0 0" fill="url(#b)"/>
                    <path d="m 20 12 h 36 c 4.417969 0 8 3.582031 8 8 v 78 c 0 4.417969 -3.582031 8 -8 8 h -36 c -4.417969 0 -8 -3.582031 -8 -8 v -78 c 0 -4.417969 3.582031 -8 8 -8 z m 0 0" fill="#f9f06b"/>
                    <path d="m 72 12 h 36 c 4.417969 0 8 3.582031 8 8 v 78 c 0 4.417969 -3.582031 8 -8 8 h -36 c -4.417969 0 -8 -3.582031 -8 -8 v -78 c 0 -4.417969 3.582031 -8 8 -8 z m 0 0" fill="#f9f06b"/>
                    <path d="m 38.5 41 l -2.125 1.875 l 0.25 32.25 c 0 1.191406 1.125 2.375 1.125 2.375 l 3.125 -2.25 s -1.5 -0.929688 -1.5 -2 z m 0 0" fill="#e5a50a"/>
                    <path d="m 21.6875 48.625 l 2.25 3 h 28.75 l -4.40625 -4.40625 l -2.125 2.125 z m 5.75 5.375 l 0.125 14.125 l 3.1875 -1.625 v -10.9375 z m 16.625 -1.625 l 4.9375 2.625 l -2.0625 1.25 v 7.0625 l 0.9375 1.0625 l -2.3125 2.3125 l -1.375 -2.125 z m 0 0" fill="#e5a50a"/>
                    <path d="m 29.191406 55.375 h 16.492188 c 0.347656 0 0.628906 0.28125 0.628906 0.628906 v 0.304688 c 0 0.347656 -0.28125 0.628906 -0.628906 0.628906 h -16.492188 c -0.347656 0 -0.628906 -0.28125 -0.628906 -0.628906 v -0.304688 c 0 -0.347656 0.28125 -0.628906 0.628906 -0.628906 z m 0 0" fill="#e5a50a"/>
                    <path d="m 29.191406 59.4375 h 16.492188 c 0.347656 0 0.628906 0.28125 0.628906 0.628906 v 0.304688 c 0 0.347656 -0.28125 0.628906 -0.628906 0.628906 h -16.492188 c -0.347656 0 -0.628906 -0.28125 -0.628906 -0.628906 v -0.304688 c 0 -0.347656 0.28125 -0.628906 0.628906 -0.628906 z m 0 0" fill="#e5a50a"/>
                    <path d="m 29.191406 63.0625 h 16.492188 c 0.347656 0 0.628906 0.28125 0.628906 0.628906 v 0.304688 c 0 0.347656 -0.28125 0.628906 -0.628906 0.628906 h -16.492188 c -0.347656 0 -0.628906 -0.28125 -0.628906 -0.628906 v -0.304688 c 0 -0.347656 0.28125 -0.628906 0.628906 -0.628906 z m 0 0" fill="#e5a50a"/>
                    <path d="m 22 69.3125 l 3.9375 3.9375 l 1.6875 -1.4375 h 27.75 l -4.40625 -4.40625 l -2.125 2.125 z m 0 0" fill="#e5a50a"/>
                    <path d="m 87.75 42.75 c 0 10.902344 -0.546875 19.875 -11.625 26.5 l 0.4375 2.6875 c 8.632812 -4.097656 13.4375 -11.007812 13.4375 -23.1875 l 2.1875 -0.5 z m 0 0" fill="#e5a50a"/>
                    <path d="m 75.6875 53.0625 l 1.25 1.9375 h 25.0625 l -4.40625 -4.40625 l -1.9375 2.5625 z m 14.4375 3.0625 c 0 8.527344 9.5625 15.875 9.5625 15.875 l 2.4375 -3.875 s -10.625 -5.121094 -10.625 -11.6875 z m 2.125 -9.5625 c 1.304688 1.203125 3.066406 2.175781 3.125 4 l 2.5 -1.875 c -1.003906 -1.484375 -2.726562 -2.070312 -4.375 -2.75 z m 0 0" fill="#e5a50a"/>
                    <path d="m 72 12 c -4.433594 0 -8 3.566406 -8 8 v 78 c 0 4.433594 3.566406 8 8 8 h 2 c -4.433594 0 -9 -3.566406 -9 -8 v -78 c 0 -4.433594 4.566406 -8 9 -8 z m 0 0" fill="#fbf5a1"/>
                    <path d="m 56 12 c 4.433594 0 8 3.566406 8 8 v 78 c 0 4.433594 -3.566406 8 -8 8 h -2 c 4.433594 0 9 -3.566406 9 -8 v -78 c 0 -4.433594 -4.566406 -8 -9 -8 z m 0 0" fill="#f7d782" fill-opacity="0.94902"/>
                </g>
            </g>
        </g>
    </mask>
    <mask id="f">
        <g filter="url(#a)">
            <rect fill-opacity="0.8" height="184.32" width="184.32" x="-28.16" y="-28.16"/>
        </g>
    </mask>
    <linearGradient id="g" gradientTransform="matrix(0 0.37 -0.98462 0 295.38501 -30.360001)" gradientUnits="userSpaceOnUse" x1="300" x2="428" y1="235" y2="235">
        <stop offset="0" stop-color="#f9f06b"/>
        <stop offset="1" stop-color="#f5c211"/>
    </linearGradient>
    <clipPath id="h">
        <rect height="128" width="128"/>
    </clipPath>
    <clipPath id="i">
        <rect height="128" width="128"/>
    </clipPath>
    <path d="m 20 24 h 36 c 4.417969 0 8 3.582031 8 8 v 76 c 0 4.417969 -3.582031 8 -8 8 h -36 c -4.417969 0 -8 -3.582031 -8 -8 v -76 c 0 -4.417969 3.582031 -8 8 -8 z m 0 0" fill="url(#b)"/>
    <path d="m 72 24 h 36 c 4.417969 0 8 3.582031 8 8 v 76 c 0 4.417969 -3.582031 8 -8 8 h -36 c -4.417969 0 -8 -3.582031 -8 -8 v -76 c 0 -4.417969 3.582031 -8 8 -8 z m 0 0" fill="url(#b)"/>
    <path d="m 20 12 h 36 c 4.417969 0 8 3.582031 8 8 v 78 c 0 4.417969 -3.582031 8 -8 8 h -36 c -4.417969 0 -8 -3.582031 -8 -8 v -78 c 0 -4.417969 3.582031 -8 8 -8 z m 0 0" fill="#f9f06b"/>
    <path d="m 72 12 h 36 c 4.417969 0 8 3.582031 8 8 v 78 c 0 4.417969 -3.582031 8 -8 8 h -36 c -4.417969 0 -8 -3.582031 -8 -8 v -78 c 0 -4.417969 3.582031 -8 8 -8 z m 0 0" fill="#f9f06b"/>
    <g fill="#e5a50a">
        <path d="m 38.5 41 l -2.125 1.875 l 0.25 32.25 c 0 1.191406 1.125 2.375 1.125 2.375 l 3.125 -2.25 s -1.5 -0.929688 -1.5 -2 z m 0 0"/>
        <path d="m 21.6875 48.625 l 2.25 3 h 28.75 l -4.40625 -4.40625 l -2.125 2.125 z m 5.75 5.375 l 0.125 14.125 l 3.1875 -1.625 v -10.9375 z m 16.625 -1.625 l 4.9375 2.625 l -2.0625 1.25 v 7.0625 l 0.9375 1.0625 l -2.3125 2.3125 l -1.375 -2.125 z m 0 0"/>
        <path d="m 29.191406 55.375 h 16.492188 c 0.347656 0 0.628906 0.28125 0.628906 0.628906 v 0.304688 c 0 0.347656 -0.28125 0.628906 -0.628906 0.628906 h -16.492188 c -0.347656 0 -0.628906 -0.28125 -0.628906 -0.628906 v -0.304688 c 0 -0.347656 0.28125 -0.628906 0.628906 -0.628906 z m 0 0"/>
        <path d="m 29.191406 59.4375 h 16.492188 c 0.347656 0 0.628906 0.28125 0.628906 0.628906 v 0.304688 c 0 0.347656 -0.28125 0.628906 -0.628906 0.628906 h -16.492188 c -0.347656 0 -0.628906 -0.28125 -0.628906 -0.628906 v -0.304688 c 0 -0.347656 0.28125 -0.628906 0.628906 -0.628906 z m 0 0"/>
        <path d="m 29.191406 63.0625 h 16.492188 c 0.347656 0 0.628906 0.28125 0.628906 0.628906 v 0.304688 c 0 0.347656 -0.28125 0.628906 -0.628906 0.628906 h -16.492188 c -0.347656 0 -0.628906 -0.28125 -0.628906 -0.628906 v -0.304688 c 0 -0.347656 0.28125 -0.628906 0.628906 -0.628906 z m 0 0"/>
        <path d="m 22 69.3125 l 3.9375 3.9375 l 1.6875 -1.4375 h 27.75 l -4.40625 -4.40625 l -2.125 2.125 z m 0 0"/>
        <path d="m 87.75 42.75 c 0 10.902344 -0.546875 19.875 -11.625 26.5 l 0.4375 2.6875 c 8.632812 -4.097656 13.4375 -11.007812 13.4375 -23.1875 l 2.1875 -0.5 z m 0 0"/>
        <path d="m 75.6875 53.0625 l 1.25 1.9375 h 25.0625 l -4.40625 -4.40625 l -1.9375 2.5625 z m 14.4375 3.0625 c 0 8.527344 9.5625 15.875 9.5625 15.875 l 2.4375 -3.875 s -10.625 -5.121094 -10.625 -11.6875 z m 2.125 -9.5625 c 1.304688 1.203125 3.066406 2.175781 3.125 4 l 2.5 -1.875 c -1.003906 -1.484375 -2.726562 -2.070312 -4.375 -2.75 z m 0 0"/>
    </g>
    <path d="m 72 12 c -4.433594 0 -8 3.566406 -8 8 v 78 c 0 4.433594 3.566406 8 8 8 h 2 c -4.433594 0 -9 -3.566406 -9 -8 v -78 c 0 -4.433594 4.566406 -8 9 -8 z m 0 0" fill="#fbf5a1"/>
    <path d="m 56 12 c 4.433594 0 8 3.566406 8 8 v 78 c 0 4.433594 -3.566406 8 -8 8 h -2 c 4.433594 0 9 -3.566406 9 -8 v -78 c 0 -4.433594 -4.566406 -8 -9 -8 z m 0 0" fill="#f7d782" fill-opacity="0.94902"/>
    <g mask="url(#e)">
        <g clip-path="url(#i)">
            <g mask="url(#f)">
                <g clip-path="url(#h)">
                    <path d="m 128 80.640625 v 47.359375 h -128 v -47.359375 z m 0 0" fill="url(#g)"/>
                    <path d="m 13.308594 80.640625 l 47.355468 47.359375 h 21.214844 l -47.359375 -47.359375 z m 42.421875 0 l 47.363281 47.359375 h 21.214844 l -47.363282 -47.359375 z m 42.429687 0 l 29.839844 29.839844 v -21.210938 l -8.628906 -8.628906 z m -98.160156 7.90625 v 21.214844 l 18.238281 18.238281 h 21.214844 z m 0 0"/>
                </g>
            </g>
        </g>
    </g>
</svg>
